<?xml version="1.0" encoding="utf-8"?>
<!-- Generator: Adobe Illustrator 26.0.2, SVG Export Plug-In . SVG Version: 6.00 Build 0)  -->
<svg version="1.1" id="Ebene_1" xmlns="http://www.w3.org/2000/svg" xmlns:xlink="http://www.w3.org/1999/xlink" x="0px" y="0px"
	 viewBox="0 0 500 500" style="enable-background:new 0 0 500 500;" xml:space="preserve">
<style type="text/css">
	.st0{fill:#ECECEC;}
	.st1{fill:#FFCC00;stroke:#FFCC00;stroke-width:6.4733;stroke-miterlimit:10;}
	.st2{fill:#002454;}
	.st3{fill:#E30613;}
	.st4{fill:#FFFFFF;}
</style>
<g>
	<path class="st0" d="M411.2,144.5l-0.6-8.4V20.2H89.5v115.9l-0.6,8.4c-11,144.4,44,261.5,154.7,331.4l6.5,3.9l6.5-3.9
		C367.2,406,422.2,288.8,411.2,144.5z"/>
	<path class="st1" d="M398.2,32.5v97.7c-26.5-7.8-77-19.4-148.2-19.4s-122.3,11.7-148.2,19.4V32.5H398.2"/>
	<path class="st2" d="M406,25.4H94.6V140l0,0l0,0l0,0l4.5-1.3c24-7.8,76.4-20.7,150.8-20.7c75.1,0,126.9,12.9,150.8,20.7l4.5,1.3
		L406,25.4z M250,110.8c-71.2,0-122.3,11.7-148.2,19.4V32.5h297.1v97.7C372.3,122.5,321.2,110.8,250,110.8z"/>
	<path class="st3" d="M250,474l-3.9-2.6C137.4,402.8,83,286.9,94,145.1l0.6-5.2l4.5-1.3c24-7.8,76.4-20.7,150.8-20.7
		c75.1,0,126.9,12.9,150.8,20.7l4.5,1.3l0.6,5.2c10.4,142.4-43.4,258.3-152.1,326.3L250,474z"/>
	<path class="st4" d="M398.9,145.1c-33.7-11-84.8-20.1-148.9-20.1s-115.2,9.7-148.9,20.1c-10.4,139.2,40.8,244,148.9,312
		C358.1,389.2,409.2,284.3,398.9,145.1z"/>
	<path class="st3" d="M195,270.7c18.1-0.6,41.4,15.5,57,39.5c12.9-0.6,25.2-3.9,35.6-8.4c-13.6-37.5-90-71.9-113.3-21.4l0,0
		C179.4,275.9,184.6,271.4,195,270.7z M237.7,240.3c33,1.9,65.4,26.5,71.2,46c6.5-9.1,7.8-20.1-1.9-30.4c-14.9-14.2-35-22.7-57-22.7
		c-14.2,0-27.2,3.2-38.8,9.7C216.3,240.9,224.8,239.6,237.7,240.3z M252.6,319.3c-5.8,11.7-9.7,24-10.4,35.6
		c39.5,7.1,106.8-41.4,75.1-87.4l0,0c1.9,6.5,3.2,13.6-1.3,22.7C307,305.7,281.1,317.3,252.6,319.3z M321.2,341.3
		c-18.1,27.2-55.7,43.4-75.1,38.8c4.5,10.4,13.6,16.8,27.2,13.6c19.4-5.8,36.9-18.8,47.9-37.5c7.1-12.3,10.4-25.2,11-38.8
		C330.9,323.1,327.7,330.9,321.2,341.3z M239,384.6c-9.7-15.5-7.1-44,5.8-69.3c-7.1-11-16.2-20.1-25.2-26.5
		c-25.9,30.4-17.5,113.3,38.2,108.8l0,0C251.3,395.6,244.8,393.1,239,384.6z M195.6,278.5c-11.7-1.3-21.4,3.9-25.9,16.8
		c-4.5,20.1-1.9,41.4,9.1,60.2c7.1,12.3,16.8,22,27.8,29.1c-3.9-3.9-9.1-11-14.9-22C176.9,333.5,182,293.4,195.6,278.5z"/>
	<g>
		<path class="st3" d="M248.7,195c3.2,0,6.5,0,9.7,0c0-16.8,0-33.7,0-50.5c-3.2,0-6.5,0-9.7,0C248.7,161.3,248.7,178.1,248.7,195z"
			/>
		<path class="st3" d="M347.7,152.3c-7.8,15.5-14.9,31.7-22.7,47.3c3.2,0.6,7.1,0.6,10.4,1.3c5.8-12.3,11.7-25.2,17.5-37.5
			c3.2,7.8,6.5,15.5,9.1,23.3c-4.5-0.6-8.4-1.3-12.9-2.6c-1.3,2.6-2.6,5.8-3.9,8.4c7.1,1.3,13.6,2.6,20.7,3.9
			c1.3,3.2,2.6,7.1,4.5,10.4c3.2,0.6,7.1,1.3,10.4,1.9c-7.8-18.8-14.9-36.9-22.7-55C354.9,153.5,351,152.9,347.7,152.3z"/>
		<path class="st3" d="M319.9,169.7c-6.5-0.6-13.6-1.3-20.1-1.9c-1.3,2.6-2.6,5.2-3.9,8.4c5.2,0.6,10.4,0.6,14.9,1.3
			c0,2.6,0,5.2,0,7.1c-3.2,3.2-7.8,5.2-12.9,4.5c-9.7-0.6-17.5-9.1-17.5-18.8c0-9.7,7.8-17.5,17.5-16.2c2.6,0,5.2,0.6,7.1,1.9
			c1.3-2.6,2.6-5.2,3.9-7.8c-3.2-1.9-7.1-3.2-11-3.2c-14.9-1.3-26.5,10.4-26.5,25.2c0,14.9,11.7,26.5,26.5,27.8
			c9.1,0.6,16.8-2.6,22-9.1l0,0C319.9,182.7,319.9,176.2,319.9,169.7z"/>
		<path class="st3" d="M211.2,145.8c-3.2,0-6.5,0.6-9.7,0.6c0,16.8,0,33.7,0,50.5c11.7-0.6,24-1.3,35.6-1.9c0-3.2,0-5.8,0-9.1
			c-9.1,0-17.5,0.6-25.9,1.3C211.2,173.6,211.2,160,211.2,145.8z"/>
		<path class="st3" d="M119.2,173.6c0.6-12.3,11-18.1,20.7-19.4c9.7-1.9,19.4,0.6,19.4,12.3c0,12.9-9.7,17.5-20.1,19.4
			c-4.5,0.6-11,3.2-11,9.1c0,1.3,0,2.6,0,4.5c10.4-1.9,20.7-3.9,31.1-5.8c0,3.2,0,5.8,0,9.1c-13.6,1.9-27.2,4.5-40.8,7.8
			c0-4.5,0-9.1,0-13.6c0-11.7,10.4-17.5,20.1-19.4c3.9-0.6,11-3.2,11-9.1c0-5.2-4.5-6.5-10.4-5.8c-5.8,1.3-11,4.5-11.7,9.1
			C125.7,172.3,122.5,173,119.2,173.6z"/>
		<path class="st3" d="M178.1,195c0,7.1-10.4,8.4-10.4,1.3C167.8,189.2,178.1,187.9,178.1,195z"/>
	</g>
	<g>
		<g>
			<path class="st2" d="M169.1,57.1h20.1c2.6,0,4.5,0.6,6.5,1.3c1.9,0.6,3.2,1.9,4.5,3.2s1.9,2.6,2.6,4.5c0.6,1.9,0.6,3.9,0.6,5.8
				s0,3.9-0.6,5.2c-0.6,1.9-1.3,3.2-3.2,4.5c-1.3,1.3-3.2,2.6-4.5,3.2c-1.9,0.6-3.9,1.3-6.5,1.3h-19.4V57.1z M187.2,79.8
				c2.6,0,5.2-1.3,6.5-2.6c1.3-1.3,1.9-3.2,1.9-5.8s-0.6-4.5-1.9-5.8c-1.3-1.3-3.2-2.6-6.5-2.6h-9.7v16.8
				C177.5,79.8,187.2,79.8,187.2,79.8z"/>
			<path class="st2" d="M282.4,86.2H274V57.1H294c3.9,0,7.1,0.6,9.1,1.9s2.6,3.9,2.6,7.1c0,2.6-0.6,4.5-1.9,5.8
				c-1.3,1.3-2.6,1.9-3.2,2.6l5.8,11.7h-8.4l-5.2-10.4h-10.4V86.2z M292.7,69.4c1.3,0,2.6-0.6,3.2-1.3c0.6-0.6,0.6-1.3,0.6-1.9
				c0-0.6,0-1.3-0.6-1.9c-0.6-0.6-1.9-0.6-3.2-0.6h-10.4V70h10.4V69.4z"/>
			<path class="st2" d="M149,52.6h-11l-18.8,38.2h9.7l4.5-9.7h20.7l4.5,9.7h9.7L149,52.6z M137.4,73.3l6.5-12.9l6.5,12.9H137.4z"/>
			<path class="st2" d="M331.6,57.1h-9.7l-14.2,29.1h8.4l2.6-5.8h15.5l2.6,5.8h8.4L331.6,57.1z M322.5,73.3l4.5-9.1l4.5,9.1H322.5z"
				/>
			<rect x="256.5" y="57.1" class="st2" width="8.4" height="29.1"/>
			<polygon class="st2" points="236.4,57.1 228.6,71.3 220.9,57.1 208.6,57.1 208.6,86.2 217,86.2 217,65.5 228.6,86.2 240.3,65.5 
				240.3,86.2 248.7,86.2 248.7,57.1 			"/>
			<polygon class="st2" points="358.8,83 358.8,52.6 349,52.6 349,90.8 381.4,90.8 381.4,83 			"/>
		</g>
	</g>
</g>
</svg>
