<?xml version="1.0" encoding="utf-8"?>
<!-- Generator: Adobe Illustrator 26.0.2, SVG Export Plug-In . SVG Version: 6.00 Build 0)  -->
<svg version="1.1" xmlns="http://www.w3.org/2000/svg" xmlns:xlink="http://www.w3.org/1999/xlink" x="0px" y="0px"
	 viewBox="0 0 500 500" style="enable-background:new 0 0 500 500;" xml:space="preserve">
<style type="text/css">
	.st0{fill:#8F9191;}
	.st1{fill:#D10214;}
	.st2{fill:#FFFFFF;}
</style>
<g id="Ebene_2">
</g>
<g id="Ebene_1">
	<g>
		<path class="st0" d="M450.3,250.6c0,29.5-8.8,39.9-43.4,49.7l-18.3,5.2c-15.4,4.3-17.3,9.3-17.3,19.2v6.5h76.8v27.7H335.4v-31.1
			c0-25.3,9.1-39.8,43.5-49.6l18.1-5.2c15-4.3,19.2-8.6,19.2-19.7c0-12.9-7-17.9-24.9-17.9c-16.8,0-33.3,3.6-49.4,10.9v-17.5L20,357
			v30.1h458.5v-213l-79.5,31.7C433,207.4,450.3,222.3,450.3,250.6z"/>
		<path class="st1" d="M20,347.2l458.4-182.8v0.1l0,0V20.4H20V347.2z M353.9,131.8c11.3,0,20.5,9.3,20.5,20.6
			c0,11.4-9.2,20.6-20.5,20.6c-11.4,0-20.6-9.2-20.6-20.6C333.3,141.1,342.5,131.8,353.9,131.8z M46.2,119c3.8-1.6,6.7-2.3,8.9-5.3
			c2.1-3,4.7-5,8.1-5.1c0,0,16.6-21.6,26.3-31.9c2.7-2.8,7.7-1.9,7.7-1.9l0.8-3.3c0,0,33.4-4,49,1.2c-0.4-9.5,3.9-22,18.7-22
			c7.6,0,18.8,6.7,20.3,14.9c0.5,2.5-1,4.2-1.7,7.4c-1.3,4.8,0.5,10.2-0.1,11.8c-0.4,1.4-2,1.3-3.3,3.2c-1.4,2-3.1,5.8-3.1,5.8
			l-2,4.5l-10.4-0.7c-3.8,8.2-11.6,25-14.3,41.6c8.2,0.7,45.3,6.1,45.3,6.1l0.9,3c0,0,15.7,1.9,28.4,7.9c2.9,0.7,10.1-0.4,14.8,1.8
			c0.3-0.2,1.1-1,1.4-1.2c16.7,5.1,30.5,13.9,46.6,17.7c0,0,7.5,1.9,10.1,2.3c5.9,1.2,9.7,1.4,12.9,1.6c5.2,0.4,8,0.3,11.8,0.6
			c2.6,0.1,5.9-0.3,7,3.6l0,0c0.2,0.7-0.5,1.2-1.8,2.2l-0.8,0.5l0.3,0.5c0.2,0.4-0.2,0.9-0.7,1.2l-1.2,0.6c-0.6,0.3-1.2,0.3-1.3-0.1
			l-0.3-0.5l-1.5,0.7l0.2,0.5c0.2,0.4-0.1,0.8-0.7,1.1l-1.3,0.6c-0.5,0.3-1.2,0.2-1.3-0.2l-0.2-0.5c-4.8,2.2-10.1,4.6-15.6,7.1
			l0.3,0.7c0.2,0.4-0.2,0.8-0.7,1.1l-1.3,0.6c-0.6,0.3-1.2,0.2-1.3-0.2l-0.3-0.7l-1.7,0.8l0.3,0.7c0.2,0.4-0.2,0.9-0.7,1.2l-1.2,0.6
			c-0.6,0.2-1.2,0.2-1.4-0.2l-0.3-0.7c-2.4,1-5.2,1.4-7.1-2.3c-0.8-1.7-0.9-5.6-1.5-7.7c-0.4-1.1-1.6-1.3-1.6-1.3
			c-24.1-4.6-32.3,0.5-47.8-3.3c-4.9-1.2-7.5-5.7-13.5-5.8c-13-0.4-16.9-0.2-31.1-0.7c-0.6,2-0.7,2.5-0.7,2.5l-49.8-0.3l7.6,3.8
			l2.4,22c0,0-2,0.6-2.6,0.6c0.5,4.4,1,10.3,1.2,15.6c0.2,4.8,0.5,9.8,0.4,13c0,1,0,3.3-1.4,5.9c-0.9,1.7-2.5,3.1-3.8,4.1
			c-0.4,0.3-2.3,1.6-4.6,2.9c-2.3,1.4-4.9,2.8-6.2,3.4c0.1,0.6,0.5,1.2,0.7,1.7c-30.3,14.6-67.8,19.6-79.9,42.9
			c-1.4,2.7-6.4,1.3-6.5-1.6c-0.1-1.3,0-3.5,0.1-4.7h-0.5c-0.4-0.1-0.7-0.6-0.6-1.2l0.1-1.3c0-0.6,0.4-1.2,0.7-1.1H50
			c0.2-1.3,0.4-2.7,0.8-4l-0.5-0.2c-0.4-0.2-0.5-0.7-0.3-1.3l0.4-1.3c0.2-0.6,0.7-1,1.1-0.8L52,280c2.2-5,6.3-7.3,8.3-12l-0.3-0.1
			c-0.4-0.2-0.5-0.7-0.3-1.3l0.4-1.3c0.2-0.6,0.7-1,1.1-0.8l0.3,0.1c0.3-0.7,0.6-1.5,1-2.2l-0.4-0.3c-0.4-0.2-0.4-0.8,0-1.3l0.7-1.2
			c0.3-0.5,0.8-0.8,1.2-0.6l0.2,0.1l0.2,0.1c0.1,0,0.2-0.1,0.3-0.1c0.2-0.2,0.4-0.4,0.6-0.6c2-1.6,4.4-1.3,6.4-0.1
			c1.9,1.2,9.4,5.4,16.5-1.1c11.8-10.6,25.6-25,36-25.5c-2.9-6.1-7.7-18.8-8.3-23.5l-3.4-0.7c-1.9-3.9-6.2-21.9-7.5-35.5
			c0,0-1.5-14.6-0.1-19.7c-0.8-0.1-2.3,1.1-2.6,1.1c-1.9-4.7,4.2-44,10.3-55.5l9.4-3.8c-1-0.1-7.7-0.4-25.5-1.9
			c-9.9,8.8-21.4,18.3-27.2,23.4c-1,0.7-2.6,6.4-2.6,6.4s-3,2.6-5.7,4.5c-3.6,2.5-12.4,4.4-14.3,1.5c-0.4-0.7-0.3-1.1,0.1-1.5
			c1.4-1.4,6.5-3.9,8.3-7.1c-2.8,1.4-5.9,2.9-8.4,2.6C45.3,122.1,44.8,119.4,46.2,119z"/>
		<path class="st2" d="M46.5,122.1c2.4,0.3,5.6-1.3,8.4-2.6c-1.7,3.2-6.9,5.7-8.3,7.1c-0.4,0.4-0.5,0.7-0.1,1.5
			c1.9,3,10.7,1.1,14.3-1.5c2.7-1.9,5.7-4.5,5.7-4.5s1.6-5.6,2.6-6.4c5.8-5.1,17.3-14.6,27.2-23.4c17.8,1.4,24.6,1.7,25.5,1.9
			l-9.4,3.8c-6.1,11.4-12.2,50.8-10.3,55.5c0.4,0,1.9-1.2,2.6-1.1c-1.4,5.1,0.1,19.7,0.1,19.7c1.3,13.6,5.7,31.6,7.5,35.5l3.4,0.7
			c0.6,4.7,5.5,17.4,8.3,23.5c-10.4,0.5-24.2,14.9-36,25.5c-7.1,6.5-14.6,2.2-16.5,1.1c-2-1.2-4.4-1.5-6.4,0.1
			c-0.2,0.2-0.4,0.4-0.6,0.6c-0.1,0.1-0.2,0.1-0.3,0.1l-0.2-0.1L64,259c-0.3-0.2-0.8,0.1-1.2,0.6l-0.7,1.2c-0.4,0.5-0.4,1.1,0,1.3
			l0.4,0.3c-0.4,0.7-0.7,1.5-1,2.2l-0.3-0.1c-0.4-0.2-0.8,0.2-1.1,0.8l-0.4,1.3c-0.3,0.6-0.1,1.2,0.3,1.3l0.3,0.1
			c-2,4.7-6.1,7-8.3,12l-0.5-0.2c-0.4-0.1-0.8,0.3-1.1,0.8l-0.4,1.3c-0.2,0.6-0.1,1.2,0.3,1.3l0.5,0.2c-0.4,1.3-0.6,2.6-0.8,4h-0.5
			c-0.4-0.1-0.7,0.5-0.7,1.1l-0.1,1.3c-0.1,0.6,0.3,1.2,0.6,1.2h0.5c-0.1,1.2-0.1,3.3-0.1,4.7c0.2,2.9,5.1,4.3,6.5,1.6
			c12.1-23.2,49.7-28.3,79.9-42.9c-0.2-0.5-0.6-1.1-0.7-1.7c1.3-0.6,3.9-2,6.2-3.4c2.3-1.3,4.2-2.6,4.6-2.9c1.3-1,2.9-2.3,3.8-4.1
			c1.4-2.6,1.4-4.9,1.4-5.9c0.1-3.2-0.2-8.2-0.4-13c-0.2-5.3-0.7-11.2-1.2-15.6c0.6-0.1,2.6-0.6,2.6-0.6l-2.4-22l-7.6-3.8l49.8,0.3
			c0,0,0.1-0.5,0.7-2.5c14.1,0.5,18.1,0.3,31.1,0.7c6,0.1,8.6,4.6,13.5,5.8c15.5,3.8,23.6-1.3,47.8,3.3c0,0,1.2,0.2,1.6,1.3
			c0.6,2.1,0.7,6,1.5,7.7c2,3.7,4.7,3.3,7.1,2.3l0.3,0.7c0.2,0.4,0.8,0.4,1.4,0.2l1.2-0.6c0.6-0.3,0.9-0.8,0.7-1.2l-0.3-0.7l1.7-0.8
			l0.3,0.7c0.2,0.4,0.7,0.4,1.3,0.2l1.3-0.6c0.5-0.3,0.9-0.7,0.7-1.1l-0.3-0.7c5.5-2.5,10.8-4.9,15.6-7.1l0.2,0.5
			c0.2,0.4,0.8,0.4,1.3,0.2l1.3-0.6c0.6-0.3,0.9-0.7,0.7-1.1l-0.2-0.5l1.5-0.7l0.3,0.5c0.2,0.4,0.7,0.4,1.3,0.1l1.2-0.6
			c0.5-0.3,0.8-0.8,0.7-1.2l-0.3-0.5l0.8-0.5c1.3-1,2-1.4,1.8-2.2l0,0c-1.1-3.9-4.3-3.5-7-3.6c-3.8-0.3-6.6-0.2-11.8-0.6
			c-3.1-0.2-6.9-0.5-12.9-1.6c-2.5-0.5-10.1-2.3-10.1-2.3c-16.1-3.9-29.9-12.7-46.6-17.7c-0.3,0.2-1.1,1-1.4,1.2
			c-4.7-2.2-11.9-1.1-14.8-1.8c-12.8-6.1-28.4-7.9-28.4-7.9l-0.9-3c0,0-37.1-5.4-45.3-6.1c2.7-16.6,10.5-33.4,14.3-41.6l10.4,0.7
			l2-4.5c0,0,1.6-3.8,3.1-5.8c1.4-1.9,2.9-1.7,3.3-3.2c0.6-1.6-1.3-7,0.1-11.8c0.8-3.2,2.2-4.8,1.7-7.4
			c-1.5-8.2-12.7-14.9-20.3-14.9c-14.8,0-19.1,12.5-18.7,22c-15.6-5.2-49-1.2-49-1.2l-0.8,3.3c0,0-5-1-7.7,1.9
			c-9.7,10.3-26.3,31.9-26.3,31.9c-3.4,0.1-6,2.1-8.1,5.1c-2.2,3.1-5.1,3.8-8.9,5.3C44.8,119.4,45.3,122.1,46.5,122.1z"/>
		<path class="st2" d="M353.9,173c11.3,0,20.5-9.2,20.5-20.6c0-11.3-9.2-20.6-20.5-20.6c-11.4,0-20.6,9.3-20.6,20.6
			C333.3,163.8,342.5,173,353.9,173z"/>
		<path class="st2" d="M20,347.2L20,347.2l0,9.7l321.8-128.3v0.1v17.5c16.1-7.3,32.6-10.9,49.4-10.9c17.9,0,24.9,5,24.9,17.9
			c0,11.1-4.1,15.4-19.2,19.7l-18.1,5.2c-34.4,9.8-43.5,24.4-43.5,49.6v31.1h112.8v-27.7h-76.8v-6.5c0-9.8,2-14.8,17.3-19.2
			l18.3-5.2c34.6-9.8,43.4-20.2,43.4-49.7c0-28.2-17.3-43.2-51.3-44.7c-0.1,0-0.2,0-0.3,0l79.8-31.8l0-9.6v-0.1L20,347.2z"/>
		<polygon points="266.7,438.8 266.7,429.4 232.2,429.4 232.2,478.7 267.2,478.7 267.2,469.3 244.5,469.3 244.5,458.5 263,458.5 
			263,449.2 244.5,449.2 244.5,438.8 		"/>
		<path d="M60,442.3c0-8.3-4-12.9-15.4-12.9H20l0,49.3h25.5c11.1,0,15.2-4.7,15.2-13.4l0,0c0-6.9-2.4-9.7-10-11.4l-1.2-0.2l1.3-0.4
			C57.6,451.5,60,448.7,60,442.3z M31.7,437.8h10.3c4.2,0,5.9,1.7,5.9,6.2c0,4.2-1.9,6-5.9,6H31.7V437.8z M42.7,470.4h-11v-12.8h11
			c4.2,0,6,1.9,6,6.5C48.8,468.5,47.1,470.4,42.7,470.4z"/>
		<rect x="360.6" y="429.4" width="12.3" height="49.3"/>
		<polygon points="154.3,478.7 169.3,478.7 169.3,429.4 157.9,429.4 157.9,465.1 136.9,429.4 121.9,429.4 121.9,478.7 133.4,478.7 
			133.4,443.1 		"/>
		<path d="M223.3,454c0-17.5-4.6-24.6-21.8-24.6h-22v49.3h22C218.3,478.7,223.3,471.1,223.3,454z M201.1,469.3h-9.4v-30.5h9.4
			c7.2,0,9.5,3.8,9.5,15.2C210.7,465.6,208.3,469.3,201.1,469.3z"/>
		<polygon points="319.5,429.4 319.5,478.7 353,478.7 353,469.3 331.8,469.3 331.8,429.4 		"/>
		<path d="M68.7,429.4v33.2h0c0,11.6,6.7,16.9,21.4,16.9s21.4-5.3,21.4-16.9v-33.2H99.3v32.9c0,5.5-2.4,7.5-9.1,7.5
			c-6.7,0-9.1-2.1-9.1-7.5v-32.9H68.7z"/>
		<path d="M407.9,438.2c5.1,0,10.4,1,15.2,2.6v-9.5c-4.4-1.8-10.2-2.8-16.3-2.8c-17.1,0-25.2,7.7-25.2,25.5
			c0,17.9,8.1,25.6,25.2,25.6c6.4,0,12.4-1,17-2.6v-26.8l-19.2,0v8.6h9.1v11c-2.1,0.3-4.2,0.4-6.5,0.4c-9.7,0-13.1-4-13.1-16.2
			C394.3,442.4,397.6,438.2,407.9,438.2z"/>
		<path d="M446.8,429.4l-17.6,49.3h12.2l3.4-10.3h19.3l3.5,10.3H480l-17.6-49.3H446.8z M447.5,459.5l7.1-22.3l7,22.3H447.5z"/>
		<path d="M293.8,438.2c4.8,0,9.7,0.8,15,2.6v-9.6c-4.4-1.7-9.9-2.6-15.7-2.6c-12.8,0-19.2,4.7-19.2,15.5c0,8.4,2.8,11.9,11.4,13.7
			l8.2,1.7c4.6,1,5.6,1.9,5.6,5.2c0,3.8-2.5,5.3-8.2,5.3c-5.2,0-10.5-0.7-16.5-2.7v9.6c5.2,1.9,10.7,2.8,16.6,2.8
			c13.3,0,19.8-4.8,19.8-15.4c0-8.8-2.5-12-11.8-14l-8-1.7c-4-0.8-5.4-1.7-5.4-4.9C285.7,439.8,287.7,438.2,293.8,438.2z"/>
	</g>
</g>
</svg>
