<?xml version="1.0" encoding="utf-8"?>
<!-- Generator: Adobe Illustrator 26.0.2, SVG Export Plug-In . SVG Version: 6.00 Build 0)  -->
<svg version="1.1" id="Ebene_1" xmlns="http://www.w3.org/2000/svg" xmlns:xlink="http://www.w3.org/1999/xlink" x="0px" y="0px"
	 viewBox="0 0 500 500" style="enable-background:new 0 0 500 500;" xml:space="preserve">
<style type="text/css">
	.st0{fill:#FFFFFF;}
	.st1{fill:url(#SVGID_1_);}
	.st2{fill:url(#SVGID_00000115496536822561055670000014829731269879784870_);}
	.st3{fill:url(#SVGID_00000084497028211097265120000008291748910412013742_);}
	.st4{fill:#FFCC00;}
	.st5{fill:#002454;}
</style>
<g>
	<path class="st0" d="M114.3,20v324.3c0,74.7,61,135.7,135.7,135.7s135.7-61,135.7-135.7V20H114.3z"/>
	<path d="M119.3,25v318.7c0,72.2,58.5,130.7,130.7,130.7s130.7-58.5,130.7-130.7V25H119.3z M373.9,130.8v212.9
		c0,68.5-55.4,123.9-123.9,123.9s-123.9-55.4-123.9-123.9V130.8H373.9"/>
	
		<radialGradient id="SVGID_1_" cx="-1155.2727" cy="530.9684" r="147.8517" gradientTransform="matrix(1.224647e-16 -2 -1.2087 -7.401199e-17 883.4457 -2094.0208)" gradientUnits="userSpaceOnUse">
		<stop  offset="0.6" style="stop-color:#FFFFFF;stop-opacity:0"/>
		<stop  offset="0.6727" style="stop-color:#EBEBEB;stop-opacity:0.2906"/>
		<stop  offset="0.85" style="stop-color:#BDBCBC"/>
		<stop  offset="0.8853" style="stop-color:#C1C0C0"/>
		<stop  offset="0.9231" style="stop-color:#CECDCD"/>
		<stop  offset="0.9618" style="stop-color:#E3E2E2"/>
		<stop  offset="1" style="stop-color:#FFFFFF"/>
	</radialGradient>
	<path class="st1" d="M373.9,130.8v212.9c0,68.5-55.4,123.9-123.9,123.9s-123.9-55.4-123.9-123.9V130.8H373.9"/>
	
		<radialGradient id="SVGID_00000021099798084157745230000001509194660049249949_" cx="-3137.6465" cy="4248.293" r="205.6623" gradientTransform="matrix(0.6914 0 0 -0.6914 2394.2329 3252.136)" gradientUnits="userSpaceOnUse">
		<stop  offset="0.6" style="stop-color:#FFFFFF;stop-opacity:0"/>
		<stop  offset="0.6727" style="stop-color:#EBEBEB;stop-opacity:0.2906"/>
		<stop  offset="0.85" style="stop-color:#BDBCBC"/>
		<stop  offset="0.8853" style="stop-color:#C1C0C0"/>
		<stop  offset="0.9231" style="stop-color:#CECDCD"/>
		<stop  offset="0.9618" style="stop-color:#E3E2E2"/>
		<stop  offset="1" style="stop-color:#FFFFFF"/>
	</radialGradient>
	<circle style="fill:url(#SVGID_00000021099798084157745230000001509194660049249949_);" cx="250" cy="344.3" r="103.3"/>
	
		<radialGradient id="SVGID_00000121241536485914413210000004596841064632586158_" cx="-973.003" cy="564.0485" r="75.8278" gradientTransform="matrix(2 0 0 -2 2169.3523 1431.8578)" gradientUnits="userSpaceOnUse">
		<stop  offset="0" style="stop-color:#F3997B"/>
		<stop  offset="4.485722e-02" style="stop-color:#F29276"/>
		<stop  offset="0.1096" style="stop-color:#F07F69"/>
		<stop  offset="0.1863" style="stop-color:#ED6052"/>
		<stop  offset="0.2716" style="stop-color:#E83434"/>
		<stop  offset="0.3503" style="stop-color:#E30613"/>
		<stop  offset="0.8864" style="stop-color:#770F00"/>
		<stop  offset="0.9091" style="stop-color:#810F01"/>
		<stop  offset="0.9473" style="stop-color:#8A1003"/>
		<stop  offset="1" style="stop-color:#8D1003"/>
	</radialGradient>
	<path style="fill:url(#SVGID_00000121241536485914413210000004596841064632586158_);" d="M180.9,288.9c23-0.6,52.3,19.9,71.6,49.8
		c16.2-0.6,32.4-4.4,44.8-11.2c-16.2-46.7-112-89.6-141.3-26.1l0,0C161.6,295.1,168.5,289.5,180.9,288.9z M234.4,250.3
		c41.1,2.5,81.5,33,89,57.3c8.7-11.8,9.3-25.5-1.9-38.6c-18.7-17.4-43.6-28.6-71.6-28.6c-18.1,0-34.2,4.4-49.2,12.4
		C208.3,251.6,218.3,249.7,234.4,250.3z M253.1,349.9c-7.5,14.3-11.8,29.9-13.1,44.8c49.2,9.3,134.5-52.3,94.6-109.6l0,0
		c2.5,8.1,4.4,16.8-1.9,28C321.6,332.5,289.2,348,253.1,349.9z M339,377.9c-23,34.2-69.7,54.2-94.6,48.6
		c6.2,13.1,17.4,21.2,34.2,17.4c24.3-7.5,46.7-23.7,60.4-47.3c8.7-15.6,13.1-32.4,13.7-48.6C351.5,354.9,347.7,364.8,339,377.9z
		 M236.3,432.1c-11.8-19.3-8.7-54.8,7.5-87.1c-8.7-13.7-19.9-25.5-31.7-33.6c-32.4,38-21.8,142.5,47.9,136.3l0,0
		C251.9,445.8,243.2,443.3,236.3,432.1z M181.5,298.9c-14.3-1.2-26.8,4.4-32.4,21.2c-6.2,24.9-3.1,52.3,11.2,75.9
		c8.7,15.6,21.2,28,35.5,36.7c-5-5-11.8-13.7-19.3-27.4C158.5,368,164.1,317.5,181.5,298.9z"/>
	<g>
		<rect x="126.1" y="31.8" class="st4" width="247.1" height="91.5"/>
	</g>
	<path d="M223.9,155.1l18.7,23h5.6v-34.9h-6.8v23.7l-18.7-23.7H217v34.9h6.8V155.1z M164.7,159.4c1.9-1.9,2.5-3.7,2.5-6.8
		c0-5.6-4.4-10-10-10h-18.7v34.9h19.3c5.6,0,10.6-4.4,10.6-10.6C167.8,164.4,166.6,161.9,164.7,159.4z M144.8,149.5h11.8
		c2.5,0,3.7,1.9,3.7,3.7c0,2.5-1.9,3.7-3.7,3.7h-11.2v-7.5H144.8z M157.3,171.9h-11.8v-8.7h11.8c2.5,0,4.4,1.9,4.4,4.4
		C161.6,170,159.7,171.9,157.3,171.9z M347.7,156.9c-4.4-0.6-7.5-1.2-7.5-4.4c0-1.9,2.5-4.4,7.5-4.4c3.7,0,6.8,1.9,8.1,3.7l5-2.5
		c-2.5-5.6-8.1-6.8-13.7-6.8c-6.2,0-13.7,3.1-13.7,10c0,7.5,6.8,10,13.7,10.6c4.4,0.6,8.1,1.9,8.1,5c0,3.7-3.7,5-8.1,5
		s-8.1-1.9-10-5.6l-5.6,3.1c2.5,6.2,8.1,8.7,14.9,8.7c7.5,0,14.3-3.1,14.3-11.2C361.4,159.4,354.6,157.6,347.7,156.9z M289.8,160.7
		c0-9.3-7.5-17.4-17.4-17.4h-13.7v34.9h13.7C282.4,178.1,289.8,170,289.8,160.7z M272.4,171.9h-6.8v-22.4h6.8
		c7.5,0,10.6,5.6,10.6,10.6C283.6,166.3,280.5,171.9,272.4,171.9z M207.1,163.8v-19.9h-6.2v19.9c0,5-3.7,8.7-8.7,8.7
		c-5,0-8.7-3.7-8.7-8.7v-19.9h-6.2v19.9c0,8.7,6.8,14.9,14.9,14.9C200.2,178.7,207.1,171.9,207.1,163.8z M305.4,163.8H321v-6.2
		h-15.6v-8.1h19.3v-6.2h-25.5v34.9h25.5v-6.2h-19.3V163.8z M220.7,223.5h6.2v-34.9h-6.2V223.5z M288.6,188.7L273,223.5h6.8
		l11.8-27.4l6.2,14.9h-9.3l-2.5,6.2h14.3l3.1,6.8h6.8l-15.6-34.9h-6.2V188.7z M269.3,203.6h-13.7l-2.5,5.6h10.6v5
		c-2.5,2.5-5.6,3.7-8.7,3.7c-6.8,0-11.8-5.6-11.8-11.8s5.6-11.8,11.8-11.8c1.9,0,3.7,0.6,5,1.2l2.5-5.6c-2.5-1.2-5-1.9-7.5-1.9
		c-10,0-18.1,8.1-18.1,18.1c0,10,8.1,18.1,18.1,18.1c6.2,0,11.8-3.1,14.9-7.5l0,0v-13.1H269.3z M195.2,188.7h-6.8v34.9h24.3v-6.2
		h-18.1v-28.6H195.2z"/>
	<g>
		<path class="st5" d="M180.3,65.4h17.4c1.9,0,4.4,0.6,5.6,1.2c1.9,0.6,3.1,1.2,3.7,2.5c1.2,1.2,1.9,2.5,2.5,3.7
			c0.6,1.2,0.6,3.1,0.6,5c0,1.9,0,3.1-0.6,4.4s-1.2,3.1-2.5,3.7c-1.2,1.2-2.5,1.9-4.4,2.5c-1.9,0.6-3.7,1.2-5.6,1.2h-16.8
			C180.3,89.7,180.3,65.4,180.3,65.4z M195.8,84.7c2.5,0,4.4-0.6,5.6-1.9c1.2-1.2,1.9-3.1,1.9-5c0-1.9-0.6-3.7-1.9-5
			s-3.1-2.5-5.6-2.5h-8.7v14.3H195.8z"/>
		<path class="st5" d="M277.4,90.3h-7.5V65.4h17.4c3.7,0,6.2,0.6,7.5,1.9c1.9,1.2,2.5,3.1,2.5,6.2c0,1.9-0.6,3.7-1.9,5
			c-1.2,1.2-2.5,1.9-3.1,1.9l5,10h-7.5l-4.4-8.7h-8.1V90.3z M286.7,76c1.2,0,2.5-0.6,3.1-0.6c0.6-0.6,0.6-1.2,0.6-1.9s0-1.2-0.6-1.9
			c-0.6-0.6-1.2-0.6-3.1-0.6h-9.3v5.6h9.3V76z"/>
		<path class="st5" d="M162.9,61.7h-9.3l-16.2,32.4h8.1l3.7-8.1h17.4l4.4,8.1h8.1L162.9,61.7z M152.9,79.8l5.6-11.2l5.6,11.2H152.9z
			"/>
		<path class="st5" d="M320.3,65.4h-8.7l-12.4,24.9h7.5l2.5-5h13.7l2.5,5h7.5L320.3,65.4z M312.2,79.8l3.7-7.5l3.7,7.5H312.2z"/>
		<rect x="255.6" y="65.4" class="st5" width="7.5" height="24.9"/>
		<polygon class="st5" points="238.2,65.4 231.3,77.9 224.5,65.4 213.9,65.4 213.9,90.3 221.4,90.3 221.4,72.9 231.3,90.3 
			241.3,72.9 241.3,90.3 248.8,90.3 248.8,65.4 		"/>
		<polygon class="st5" points="343.4,87.8 343.4,61.7 335.3,61.7 335.3,94.1 362.7,94.1 362.7,87.8 		"/>
	</g>
</g>
</svg>
