<?xml version="1.0" encoding="utf-8"?>
<!-- Generator: Adobe Illustrator 26.0.2, SVG Export Plug-In . SVG Version: 6.00 Build 0)  -->
<svg version="1.1" id="Ebene_1" xmlns="http://www.w3.org/2000/svg" xmlns:xlink="http://www.w3.org/1999/xlink" x="0px" y="0px"
	 viewBox="0 0 500 500" style="enable-background:new 0 0 500 500;" xml:space="preserve">
<style type="text/css">
	.st0{fill:#010101;}
	.st1{fill:#D2121A;}
	.st2{fill:#FFFFFF;}
</style>
<g id="ec5dfecf-12ef-4af9-b027-86e5410fd4e1">
	<path id="bfca7a78-7379-454b-8b62-3c2d9d53afce" class="st0" d="M60.9,465.1c0,8.8-4.1,13.5-15.2,13.5H20.2v-49.3h24.5
		c11.5,0,15.4,4.5,15.4,12.8c0,6.3-2.4,9.3-9.2,11h-1.2h1.1c7.8,1.7,10.1,4.6,10.1,11.5L60.9,465.1z M31.9,449.8h10.3
		c4.1,0,6-1.8,6-6c0-4.2-1.7-6.2-6-6.2H32L31.9,449.8L31.9,449.8z M48.9,464.1c0-4.5-1.8-6.4-6-6.4H32v12.8h11.3
		c4.4,0,6.1-1.9,6.1-6.3H48.9z M69,462.7v-33.5h12.3v32.9c0,5.3,2.5,7.1,9.1,7.1s9.1-2.1,9.1-7.1v-32.9h12.3v33.2
		c0,11.5-6.8,16.9-21.4,16.9S69,474.1,69,462.4L69,462.7z M169.5,429.5v49.3h-15l-21-35.6v35.6h-11.4v-49.5h15l20.9,35.6v-35.6
		L169.5,429.5z M179.6,429.5h22c17.2,0,21.4,7.1,21.4,24.6s-5,24.7-21.4,24.7h-22v-49.5V429.5z M201,469.4c7.1,0,9.6-3.8,9.6-15.3
		c0-11.5-2.4-15.2-9.6-15.2h-9.3v30.5L201,469.4z M232.1,429.4h34.5v9.4h-22v10.3H263v9.3h-18.4v10.8h22.7v9.4h-35L232.1,429.4z
		 M274.4,476.8v-9.9c5.3,1.8,10.9,2.7,16.5,2.6c5.7,0,8.2-1.5,8.2-5.3c0-3.8-1.1-4.3-5.6-5.3l-7.8-1.6c-8.6-1.8-11.4-5.3-11.4-13.7
		c0-10.8,6.4-15.5,19.2-15.5c5.3,0,10.7,0.9,15.7,2.7v9.6c-4.8-1.7-9.9-2.6-15-2.6c-6.1,0-8.1,1.6-8.1,5.4c0,3.8,1.4,4.1,5.4,4.9
		l8,1.7c9.3,1.9,11.8,5.1,11.8,14.3c0,10.5-6.5,15.3-19.7,15.3c-5.6,0.1-11.3-0.7-16.6-2.5L274.4,476.8z M319.3,429.4h12.3v39.8H353
		v9.4h-33.6L319.3,429.4z M360.4,429.4h12.3v49.3h-12.2L360.4,429.4z M423.6,450.2V477c-5.5,1.7-11.3,2.6-17,2.6
		c-17.1,0-25.2-7.6-25.2-25.5s8.2-25.9,25.4-25.9c5.5-0.1,11.1,0.9,16.3,2.8v9.5c-4.9-1.7-10.1-2.5-15.3-2.6
		c-10.3,0-13.6,4.1-13.6,15.8c0,11.7,3.4,16.1,13.2,16.1c2.1,0,4.3-0.1,6.4-0.4v-10.8h-9.2V450L423.6,450.2z M463.8,468.1h-19.2
		l-3.4,10.3H429l17.6-49.3h15.7l17.5,49.3h-12.4L463.8,468.1z M454.3,437l-7.1,22.2h14.3L454.3,437z"/>
	<rect id="fa3c1343-6a02-485e-9adc-15cfb2f7ae08" x="21" y="20.5" class="st1" width="458" height="366.4"/>
	<path id="f4385706-2561-4e62-9001-2d0d1248b500" class="st2" d="M398.6,213.4c0,0.9-0.6,1.5-2.2,2.7l-1,0.6v0.6
		c0,0.4,0,1.1-0.9,1.4l-1.5,0.8c-0.6,0-1.4,0-1.6,0l-0.4-0.6l-1.9,0.9v0.6c0,0.4,0,1.1-0.9,1.4l-1.5,0.7c-0.7,0.4-1.4,0-1.6,0
		l0.3-1.2l-19.2,8.8l0.4,0.9c0,0.4,0,1.1-0.9,1.4l-1.5,0.7c-0.7,0.4-1.5,0-1.6,0l-0.4-0.9l-2.2,1.1l0.4,0.9c0,0.4,0,1-0.9,1.4
		l-1.5,0.7c-0.7,0-1.4,0-1.6,0l-0.4-0.7c-2.8,1.8-6.5,1-8.3-1.7c-0.2-0.3-0.4-0.7-0.5-1.1c-0.8-3.1-1.5-6.3-1.9-9.6
		c-0.3-0.9-1.1-1.5-2-1.6c-29.8-5.7-39.9,0.7-59-4.1c-6.1-1.4-9.3-7.1-16.7-7.1c-16.1-0.5-20.9,0-38.4-0.9l-0.9,3.1h-61.6l9.4,4.6
		l2.9,26.7c-1.1,0.3-2.2,0.6-3.3,0.8c0.6,5.4,1.2,12.8,1.5,19.4c0.3,6.6,0.6,12.1,0.5,16c0,2.5-0.6,4.9-1.8,7.1
		c-0.9,2.1-2.3,3.9-4.1,5.4c-0.6,0.4-3,2.1-5.7,3.6s-6.1,3.4-7.8,4.1c0.3,0.7,0.6,1.4,0.9,2.1c-37.3,17.9-84.1,24.1-99.1,52.9
		c-1.8,3.3-7.8,1.6-8-2v-5.8h-0.6c-0.5,0-0.9-0.6-0.8-1.4v-1.7c0-0.8,0.4-1.4,0.9-1.4h0.6c0.2-1.7,0.5-3.3,0.9-4.9h-0.6
		c-0.4,0-0.6-0.9,0-1.6l0.6-1.6c0-0.7,0.9-1.2,1.3-1.1h0.6c2.7-6.2,7.8-9,10.3-14.9l0,0c-0.5,0-0.6-0.9-0.4-1.6l0.5-1.6
		c0-0.7,0.9-1.2,1.4-1H67c0.4-0.9,0.8-1.9,1.3-2.8l-0.5-0.4c-0.4,0-0.4-1,0-1.6l0.9-1.4c0-0.6,1.1-1,1.4-0.7l0,0l0,0l0,0l0.7-0.8
		c2.4-1.7,5.6-1.8,8.1-0.1c6.3,4.3,14.7,3.8,20.4-1.3c14.3-13.1,31.7-30.9,44.5-31.5c-4.4-9.3-7.8-19.1-10.2-29.1l-4.2-0.9
		c-4.6-14.3-7.8-29-9.3-43.9c-0.9-8.1-0.9-16.3,0-24.4c-0.9,0-2.8,1.4-3.3,1.4c-2.4-5.8,5.3-54.5,12.8-68.6l11.6-4.6
		c-1.2,0-9.6-0.5-31.6-2.4c-12.4,11-26.6,22.7-33.8,29.1c-1.4,2.5-2.5,5.1-3.3,7.8c-2.3,2-4.6,3.9-7.1,5.6
		c-4.4,3.1-15.3,5.6-17.7,1.8c-0.6-0.9-0.4-1.3,0-1.8c1.6-1.8,8.1-4.8,10.2-8.8c-3.1,2-6.7,3.1-10.4,3.3c-1.3,0-2-3.3,0-3.9
		c4.3-1,8.1-3.3,11-6.6c2.1-3.6,5.8-6,10-6.3c0,0,20.5-26.7,32.6-39.5c2.7-2.1,6.1-3,9.5-2.4l1.1-4.1c0,0,41.3-4.9,60.6,1.5
		c-0.9-11.6,4.6-27,22.8-27c9.4,0,23.2,8.3,25.2,18.4c0.6,3.1-1.2,5.1-2.2,9.1c-0.4,4.9-0.4,9.8,0,14.6c-0.5,1.7-2.4,1.6-4.1,3.8
		c-1.5,2.3-2.8,4.6-3.8,7.1l-2.5,5.6l-12.8-0.9c-8.1,16.3-14.1,33.6-17.8,51.5l0,0c10.1,0.9,56,7.5,56,7.5l1.1,3.7
		c12.1,1.6,23.9,5,35.1,9.9c6.2-0.1,12.3,0.7,18.2,2.2c0.4,0,1.4-1.2,1.8-1.5c20.7,6.3,37.7,17.2,57.6,22c0,0,9.3,2.3,12.4,2.9
		c5.3,1,10.6,1.7,16,2.1c6.4,0.5,9.9,0.4,14.3,0.7c3.3,0,7.1,0,8.6,4.4 M428.2,150.6c-14.1,0-25.5,11.3-25.5,25.4
		c0,14.1,11.3,25.5,25.4,25.5c14.1,0,25.5-11.3,25.5-25.4l0,0C453.6,162.1,442.3,150.7,428.2,150.6
		C428.2,150.7,428.2,150.7,428.2,150.6L428.2,150.6z"/>
</g>
</svg>
