<?xml version="1.0" encoding="utf-8"?>
<!-- Generator: Adobe Illustrator 26.0.2, SVG Export Plug-In . SVG Version: 6.00 Build 0)  -->
<svg version="1.1" id="Ebene_1" xmlns="http://www.w3.org/2000/svg" xmlns:xlink="http://www.w3.org/1999/xlink" x="0px" y="0px"
	 viewBox="0 0 500 500" style="enable-background:new 0 0 500 500;" xml:space="preserve">
<style type="text/css">
	.st0{fill:#FFFFFF;}
	.st1{fill-rule:evenodd;clip-rule:evenodd;fill:#2C2E35;}
	.st2{fill:#2C2E35;}
	.st3{fill:#85878B;}
	.st4{fill:#F4B24E;}
	.st5{fill:#EE2915;}
	.st6{fill-rule:evenodd;clip-rule:evenodd;fill:#361E11;}
	.st7{fill-rule:evenodd;clip-rule:evenodd;fill:#F4B24E;}
	.st8{fill:#009E67;}
	.st9{fill-rule:evenodd;clip-rule:evenodd;fill:#FFFFFF;}
</style>
<g>
	<g id="Background_7C">
		<path id="_x3C_Path_x3E_" class="st0" d="M322.6,107.9l5-72.1l-7.3-3.6C297.8,21.2,263.6,20,250,20h-12v21.7l-64.5,9.1l3.9,57.1
			c-53.2,26.7-89.7,81.7-89.7,145.3c0,89.7,72.7,162.4,162.4,162.4c89.7,0,162.4-72.7,162.4-162.4
			C412.4,189.6,375.8,134.6,322.6,107.9z"/>
	</g>
	<g id="Typo_positiv_7C">
		<g id="_x3C_Group_x3E_">
			<path id="_x3C_Compound_Path_x3E_" class="st1" d="M117.7,479.2h-12.1v-37.5h12.1c12.9,0,20.4,6.8,20.4,18.4
				C138.1,472.1,130.6,479.2,117.7,479.2z M118.2,448.8h-4.4v23.1h4.4c7.5,0,11.7-4.3,11.7-11.8C129.8,453,125.7,448.8,118.2,448.8z
				"/>
			<path id="_x3C_Path_x3E__00000065046420295038911270000001710797320120110768_" class="st2" d="M167.2,448.8h-15.1V459h13.7v6.9
				h-13.7v13.2H144v-37.5h23.2V448.8z"/>
			<path id="_x3C_Compound_Path_x3E__00000047051890989428653320000012263030637698489271_" class="st1" d="M186.6,479.2h-13v-37.5
				h12.2c8.8,0,13.2,3.7,13.2,9.7c0,4.8-2.6,7.6-6,8.6v0.1c3.9,0.7,7.3,3.7,7.3,8.7C200.3,475.1,195.7,479.2,186.6,479.2z
				 M185.6,448.5h-3.9v8.7h3.9c3.6,0,5.5-1.7,5.5-4.5C191.1,449.9,189.3,448.5,185.6,448.5z M186.1,463.4h-4.4v9h4.5
				c4.1,0,6.1-1.6,6.1-4.5C192.3,465,190.1,463.4,186.1,463.4z"/>
			<path id="_x3C_Path_x3E__00000062870959581972368820000010343748256654861722_" class="st2" d="M218.7,463.7h-14.1v-6.4h14.1
				V463.7z"/>
			<path id="_x3C_Compound_Path_x3E__00000145744812496282279280000016116265583686546310_" class="st1" d="M237.4,467.7h-3.6v11.5
				h-8.1v-37.5h11.9c9.8,0,15.1,4.7,15.1,12.8C252.7,462.4,247.1,467.7,237.4,467.7z M237.6,448.7h-3.8v12.1h3.9c4.6,0,7-2.3,7-6.1
				C244.6,451,242.1,448.7,237.6,448.7z"/>
			<path id="_x3C_Compound_Path_x3E__00000116200422782238575170000011518391400928721597_" class="st1" d="M296.1,460.4
				c0,11.6-7.9,19.6-19.4,19.6c-11.6,0-19.3-7.9-19.3-19.6c0-11.5,8-19.5,19.3-19.5C288.2,440.9,296.1,448.8,296.1,460.4z
				 M265.6,460.3c0,7.5,4.6,12.3,11.2,12.3c6.6,0,11.1-4.8,11.1-12.3c0-7.4-4.5-12.2-11.1-12.2C270.2,448.1,265.6,452.9,265.6,460.3
				z"/>
			<path id="_x3C_Path_x3E__00000046301782238544789040000017336163475920080516_" class="st2" d="M314,464.3l-3.9,4.7v10.2H302
				v-37.5h8.1v17l13.6-17h9.6l-13.8,17l14.8,20.5h-10.2L314,464.3z"/>
			<path id="_x3C_Compound_Path_x3E__00000028314961627986851600000004691130872314070449_" class="st1" d="M361.1,471.9h-13.2
				l-2.7,7.3h-8.5l13.7-34.1l-1.4-3.3h8.6l15,37.5h-8.8L361.1,471.9z M350.3,465.4h8.5l-4.2-11.4h-0.1L350.3,465.4z"/>
			<path id="_x3C_Path_x3E__00000067221299183872747850000013479508190215306942_" class="st2" d="M386.6,471.9h13.7v7.3h-21.8
				v-37.5h8.1V471.9z"/>
		</g>
	</g>
	<g id="Ring_7C">
		<g id="_x3C_Group_x3E__00000132777670633268077190000006490516418213960354_">
			<path id="_x3C_Path_x3E__00000087410737645211208920000008273555738556306568_" class="st3" d="M321.8,121
				c46.8,25.5,78.6,75.1,78.6,132.2c0,35.1-12,67.4-32.2,93l-11-8.7c18.3-23.2,29.2-52.5,29.2-84.4c0-49.5-26.4-92.9-65.9-116.8
				C320.9,131.3,321.4,126.1,321.8,121z"/>
			<path id="_x3C_Path_x3E__00000172426209411598464040000007162370826081181622_" class="st4" d="M350.3,345.7l10.3,9.5
				c-15.9,17.2-35.9,30.8-58.3,39.1l-4.8-13.1C317.7,373.6,335.8,361.3,350.3,345.7z"/>
			<path id="_x3C_Path_x3E__00000127022001678058736190000001068093874383870099_" class="st5" d="M287.2,384.4l3.8,13.5
				c-13,3.7-26.7,5.6-40.9,5.6c-14.1,0-27.8-2-40.8-5.6l3.8-13.5c11.8,3.3,24.2,5.1,37,5.1C262.9,389.5,275.4,387.7,287.2,384.4z"/>
			<path id="_x3C_Path_x3E__00000000196196666786500830000017651283299068483238_" class="st2" d="M202.9,381.1l-4.8,13.1
				c-22.5-8.3-42.4-21.8-58.4-39l10.3-9.5C164.5,361.4,182.5,373.6,202.9,381.1z"/>
			<path id="_x3C_Path_x3E__00000044886987729165876440000006884051274019467930_" class="st3" d="M178.4,121
				c0.4,5.1,0.9,10.3,1.3,15.4c-39.5,23.9-65.9,67.2-65.9,116.8c0,31.9,10.9,61.2,29.3,84.4l-11,8.7c-20.2-25.6-32.3-57.9-32.3-93.1
				C99.8,196.1,131.6,146.5,178.4,121z"/>
		</g>
	</g>
	<g id="Cup_7C">
		<path id="_x3C_Compound_Path_x3E__00000032646869491750259680000001773184458077034124_" class="st6" d="M197.4,352.1
			c5.9,3.9,26.4,13,52.5,13v-20.4L197.4,352.1z M222,266.7c10.8-0.6,21.3,3,27.9,7.2l46.6-6.6c-5.6-3.6-12.2-6.3-19.3-8.4L222,266.7
			z M241.3,224.1l33.3-4.7c-5.4-3.6-11.8-6.4-18.6-8.5l-58.9,8.3C211.7,218.3,227.8,219.9,241.3,224.1z M232.8,192
			c13.4-1.6,27.5-1.2,40.2,1l31.9-4.5c-3.2-1.9-6.8-3.6-10.9-5.1L232.8,192z M229.9,170.3c12.9-1.7,28.6-1.7,43.2,0.5l33.3-4.7
			c-3.3-2-7.2-3.6-11.4-5L229.9,170.3z M227.8,93c13.4-1.5,30-1.7,45.7,0.2l38.4-5.4c-3.6-1.9-7.8-3.5-12.2-4.9L227.8,93z
			 M224.7,71.3c13.8-1.7,31.8-2.1,48.9-0.3l39.8-5.6c-3.7-1.9-8-3.5-12.6-4.9L224.7,71.3z M314.9,43c-17.4-8.6-45.4-11-65-11v15.6
			c7.1,0,15.3,0.3,23.7,1.2L314.9,43z"/>
		<path id="_x3C_Compound_Path_x3E__00000138569841029257355240000011192699903035737268_" class="st7" d="M314.9,43l-1.1,15.7
			L187.2,76.5l-1.1-15.4L314.9,43z M304.9,188.5l-1.1,15.7l-106.8,15l-1.1-15.4L304.9,188.5z M306.4,166.1l-1.1,15.7l-109.8,15.4
			l-1.1-15.4L306.4,166.1z M311.9,87.8l-5,71.7L194,175.3l-4.9-70.3L311.9,87.8z M313.4,65.4l-1.1,15.7L188.7,98.5l-1.1-15.4
			L313.4,65.4z M202.4,280.5l94.1-13.2l4.9,70.3l-103.9,14.6L202.4,280.5z M224.8,226.4l49.8-7l2.7,39.5l-55.3,7.8L224.8,226.4z
			 M249.9,108.2c-12.5,0-22.5,10.1-22.5,22.5c0,12.5,10.1,22.5,22.5,22.5c12.5,0,22.5-10.1,22.5-22.5
			C272.5,118.3,262.4,108.2,249.9,108.2z"/>
		<g id="_x3C_Group_x3E__00000016044755356616815550000003834259792956198795_">
			<path id="_x3C_Path_x3E__00000144306834899499002120000000403672842537699251_" class="st8" d="M272.5,130.8
				c0,12.5-10.1,22.5-22.5,22.5c-12.5,0-22.5-10.1-22.5-22.5c0-12.5,10.1-22.5,22.5-22.5C262.4,108.2,272.5,118.3,272.5,130.8z"/>
			<path id="_x3C_Compound_Path_x3E__00000031910610721725748430000000593488346354423208_" class="st9" d="M260.7,130.9l7.5,4.4
				l-18.1,10.4v-3.5l12.2-7l-4.6-2.7l-10.1,5.8v8.8l-3,1.7v-8.8l-7.6,4.4l0-27.2l7.6,4.4v-8.8l9.2,5.3v3.5l-6.2-3.6v5.3l6.2,3.6v3.3
				l-6.2-3.6v8.2l14.7-8.4l-6-3.4v-3.5l11.9,6.9L260.7,130.9z M244.7,125l-4.6-2.7l0,17l4.6-2.7V125z"/>
		</g>
	</g>
</g>
</svg>
