<?xml version="1.0" encoding="utf-8"?>
<!-- Generator: Adobe Illustrator 26.0.2, SVG Export Plug-In . SVG Version: 6.00 Build 0)  -->
<svg version="1.1" id="Ebene_1" xmlns="http://www.w3.org/2000/svg" xmlns:xlink="http://www.w3.org/1999/xlink" x="0px" y="0px"
	 viewBox="0 0 500 500" style="enable-background:new 0 0 500 500;" xml:space="preserve">
<style type="text/css">
	.st0{fill:#FFFFFF;}
	.st1{fill:#931F80;}
	.st2{fill:#E10F1A;}
	.st3{fill:#04519B;}
	.st4{fill:#EF8707;}
	.st5{fill:#1F1F1D;}
	.st6{fill:#208CCD;}
	.st7{fill:#FDEB20;}
	.st8{fill:#009641;}
	.st9{fill:#010101;}
	.st10{fill:#E3131B;}
</style>
<g>
	<path class="st0" d="M218.6,150.8c4.6-6.7,11.4-11.6,19.2-13.9c-1.2,1-2.3,2.1-3.3,3.3c4.2-0.6,8.4,0,12.3,1.7
		c0.4,3.6,0.8,7.2,1.2,10.7c0.3-0.2,0.4-0.5,0.4-0.8c0.4-3.3,0.7-6.4,1.2-9.9c3.9-1.7,8.1-2.2,12.3-1.7c-1-1.2-2.2-2.3-3.4-3.3
		c7.6,2.3,14.2,7.1,18.8,13.6c-1.3-0.7-2.6-1.4-4-1.9c1.8,3.7,2.6,7.8,2.4,12c-3.4,1.4-6.4,3.1-10,4.5c0.5,0.3,1.1,0,1.7,0
		c3-0.7,6.4-1.2,9.1-1.9c2.8,3.2,4.7,7.1,5.4,11.3c0.8-1.2,1.4-2.5,1.9-3.9c0.3,1.8,0.3,3.6,0,5.4c-0.9,6-3.4,11.7-7.2,16.6
		c0-1.4,0.5-2.8,0.6-4.2c-3.1,2.8-6.8,4.8-10.9,5.8c-2.6-2.7-5-5.6-7.7-8.3c1.5,3.5,3.7,6.4,5.4,10c-2.2,3.6-5.4,6.5-9.1,8.6
		l4.3,0.7c-7.4,2.4-15.3,2.4-22.6,0c1.4-0.4,2.8-0.6,4.3-0.8c-3.7-2.1-6.8-5-9-8.6c1.6-3,3.3-5.9,5-8.9c0.1-0.3,0.1-0.7,0-1
		c-2.4,2.8-5,5.5-7.5,8.2c-2.9-0.7-5.7-2-8.1-3.7c-1-0.6-1.8-1.5-2.7-2.1c0,1.5,0.4,2.9,0.6,4.3c-4.7-6.4-7.2-14.1-7.2-22
		c0.8,1.3,1.3,2.9,2.2,4.2c0.8-4.2,2.7-8.1,5.5-11.3c3.6,0.7,7.2,1.7,10.9,2.1c-3.3-1.7-6.4-3.1-10-4.7c-0.3-0.6-0.4-1.3-0.3-1.9
		c0-3.5,0.9-7,2.4-10.2c-1.5,0.6-2.9,1.3-4.2,2.2 M231.9,165.9c2,6.4,4.1,12.3,6,18.5c6.4,0,12.8,0,19.6,0c1.9-6.4,4-12.3,6-18.5
		l-15.8-11.4L231.9,165.9z"/>
	<path class="st1" d="M236.5,53.3c1-0.3,2-0.3,2.9,0c0.4,1.1,0.7,2.2,0.8,3.3c2.7,14.3,5.3,28.7,8,43.1c0.2,0.6,0.2,1.2,0,1.7
		c-0.6,0.6-1.5,0.6-2.2,0.8c-15.1,3-28.1,12.3-35.8,25.6c-0.3,0.8-1.1,1.2-1.9,0.9c-0.1,0-0.2-0.1-0.4-0.2l-38.7-22.5
		c-0.8-0.4-1.5-0.9-2.2-1.5c-0.8-1.2,0.5-2.3,1-3.3c13.4-22.2,34.5-38.6,59.4-45.9c3-0.9,6.4-1.6,9.2-2.2L236.5,53.3z"/>
	<path class="st2" d="M259.8,64.6c26.6-1.7,52.9,7,73.3,24.2c0.9,0.7,2.5,1.8,1.5,3.1c-10.2,11.9-20.6,23.7-30.8,35.6
		c-0.5,0.7-1.5,0.7-2.2,0.2c-0.1-0.1-0.1-0.1-0.2-0.2c-11.7-10.4-27.4-15.1-42.9-12.8c-0.8,0-2,0-2.1-1.1
		c-2.3-15.3-4.5-30.7-6.8-46.1c0-0.7,0-1.7,0.8-1.9C253.5,65.1,256.6,64.8,259.8,64.6z"/>
	<path class="st3" d="M149.4,105c0.8-0.5,1.7,0,2.4,0.4l40.7,21.7c1.3,0.5,0.9,1.9,0.3,2.7c-7.3,13.7-8.2,29.8-2.6,44.2
		c0.5,0.7,0.3,1.7-0.4,2.2c-0.1,0.1-0.3,0.2-0.4,0.2L146,193.2c-0.7,0.3-1.8,0-2-0.6c-10.2-25.9-9.5-54.9,1.9-80.3
		c1-2.6,2.3-5,3.8-7.3H149.4z"/>
	<path class="st4" d="M331.4,107.5c0.6-0.3,1.4-0.2,1.9,0.4c9.5,8.8,17.1,19.4,22.6,31.1c7.3,15.5,10.6,32.6,9.7,49.7
		c0,1-1.2,1.4-2,1.3l-46.4-2.3c-1.1,0-1.5-1.1-1.3-1.9c0.8-15.7-5.4-30.9-16.9-41.6c-0.7-0.5-0.8-1.4-0.3-2.1
		c0.1-0.1,0.2-0.2,0.3-0.3l31.2-33c0.4-0.4,0.8-0.9,1.3-1.3H331.4z"/>
	<path class="st5" d="M243.6,132.3c21.4-2.2,40.5,13.3,42.8,34.7s-13.3,40.5-34.7,42.8c-21.4,2.2-40.5-13.3-42.8-34.7
		c-0.9-9,1.3-18,6.3-25.6C221.7,139.8,232.1,133.5,243.6,132.3 M218.1,150.8c1.3-0.9,2.7-1.7,4.2-2.2c-1.5,3.2-2.3,6.7-2.4,10.2
		c-0.1,0.7,0,1.3,0.3,1.9c3.3,1.6,6.4,2.9,10,4.7c-3.7-0.4-7.3-1.4-10.9-2.1c-2.8,3.2-4.7,7.1-5.5,11.3c-0.9-1.3-1.3-2.8-2.2-4.2
		c0.1,8,2.9,15.7,7.7,22c0-1.4-0.5-2.8-0.6-4.3c1,0.6,1.8,1.5,2.7,2.1c2.4,1.7,5.2,3,8.1,3.7c2.4-2.7,5.1-5.4,7.5-8.2
		c0.1,0.3,0.1,0.7,0,1c-1.7,3-3.4,5.9-5,8.9c2.2,3.6,5.3,6.5,9,8.6c-1.4,0.2-2.9,0.5-4.3,0.8c7.4,2.4,15.3,2.4,22.6,0l-4.3-0.7
		c3.7-2,6.8-5,9.1-8.6c-1.7-3.4-3.9-6.4-5.4-10c2.7,2.7,5.1,5.6,7.7,8.3c4-1,7.8-3,10.9-5.8c0,1.4-0.4,2.8-0.6,4.2
		c3.5-4.8,5.8-10.4,6.7-16.2c0.3-1.8,0.3-3.6,0-5.4c-0.5,1.4-1.1,2.7-1.9,3.9c-0.7-4.2-2.6-8.1-5.4-11.3c-3.1,0.7-6.4,1.2-9.1,1.9
		c-0.6,0-1.2,0.3-1.7,0c3.4-1.4,6.4-3.1,10-4.5c0.4-4.2-0.4-8.4-2.2-12.1c1.4,0.5,2.7,1.2,4,1.9c-4.6-6.5-11.2-11.3-18.8-13.6
		c1.2,1,2.4,2.1,3.4,3.3c-4.2-0.6-8.4,0-12.3,1.7c-0.5,3.3-0.8,6.4-1.2,9.9c0,0.3-0.1,0.7-0.4,0.8c-0.4-3.6-0.8-7.2-1.2-10.7
		c-3.9-1.7-8.1-2.2-12.3-1.7c1-1.2,2.1-2.3,3.3-3.3c-7.8,2.3-14.6,7.2-19.2,13.9L218.1,150.8z"/>
	<path class="st5" d="M232.1,165.9l15.8-11.4l15.8,11.4c-2,6.4-4.1,12.3-6,18.5c-6.4,0-12.8,0-19.6,0
		C236.2,178.2,234.2,172.1,232.1,165.9z"/>
	<path class="st6" d="M178.5,187.1c1.2-0.4,1.8,0.9,2.1,1.7c6.2,13.9,18,24.6,32.5,29.2c0.6,0.1,1.2,0.4,1.7,0.8
		c0.5,0.6,0,1.5,0,2.1c-4.6,14.6-9.1,29.3-13.7,43.8c-0.1,0.8-0.8,1.4-1.7,1.3c-0.1,0-0.3-0.1-0.4-0.1c-29-8.9-52.6-30.1-64.5-58
		c-0.4-0.7-0.2-1.6,0.5-2c0.1-0.1,0.2-0.1,0.3-0.2C149.8,199.4,164.2,193,178.5,187.1L178.5,187.1z"/>
	<path class="st7" d="M301.5,193.3c0.6-0.2,1.3-0.2,1.9,0l45.9,3.6c1,0,1.5,1,1.3,1.8c-2.2,30.2-17.6,57.8-42,75.7
		c-0.5,0.7-1.5,0.7-2.2,0.2c-0.1-0.1-0.1-0.1-0.2-0.2l-27.5-37.5c-0.6-0.6-0.6-1.6,0-2.2c0.1-0.1,0.3-0.2,0.5-0.3
		c12.4-9,20.3-23,21.7-38.3c0-0.8,0-1.8,0.6-2.4L301.5,193.3z"/>
	<path class="st8" d="M262.8,226.9c0.7-0.5,1.6-0.4,2.2,0.3c0.1,0.1,0.2,0.2,0.2,0.4l25.6,38.3c0.6,0.8,1,1.9,0,2.5
		c-25.2,16.9-56.6,21.9-85.8,13.5c-1,0-1.2-1.3-0.8-2c4-14.8,8.1-29.6,12.2-44.4c0-0.6,0.4-1.3,1-1.5c0.8,0,1.7,0.1,2.5,0.4
		C234.5,238.1,250.2,235.4,262.8,226.9z"/>
	<path class="st9" d="M258.9,304.4c4-1.3,8.4,0.9,9.7,4.9c0.5,1.5,0.5,3,0.1,4.5c-1.3,4-5.6,6.3-9.6,5c-3.4-1.1-5.6-4.4-5.3-7.9
		C254,307.9,256,305.4,258.9,304.4z"/>
	<path class="st9" d="M135,364.2c0-17.4,0-34.9,0-52.3c4.6,0,9.1,0,13.6,0c0,13.5,0,27,0,40.4c5.4,0,10.9,0,16.4,0c0,4,0,8,0,12
		C155,364.2,145,364.3,135,364.2z"/>
	<path class="st9" d="M219.3,311.9c4.5,0,9.1,0,13.6,0c0,13.4,0,26.8,0,40.3c5.4,0,10.9,0,16.4,0c0,4,0,7.9,0,12h-30V311.9z"/>
	<path class="st9" d="M183.9,321.8c3.9-0.8,8-0.2,11.5,1.7c1.4,0.9,2.7,1.9,4,3v-4.2h12.8v41.9h-13.3c0-1.3,0-2.5,0-3.7
		c-2.3,1.9-5,3.3-7.9,4.2c-6.2,1.5-12.7,0-17.5-4.2c-3.7-3.5-5.9-8.2-6.4-13.3c-0.8-5.6,0.4-11.4,3.4-16.2c2.9-4.8,7.6-8.1,13.1-9.2
		 M186.4,333.8c-3.4,1.1-5.9,4.1-6.4,7.7c-0.9,4.4,1.2,8.9,5,11.2c4.1,2,8.9,1,12-2.3c3.7-4.4,3.3-11-1-14.9
		c-2.7-2.1-6.2-2.8-9.5-1.7L186.4,333.8z"/>
	<path class="st9" d="M280.5,325.1c4.6-3.5,10.6-4.6,16.1-2.8c2.7,0.9,5.1,2.5,7,4.6v-4.6c4,0,8.1,0,12.1,0c0,10.3,0,20.5,0,30.8
		c0.5,4.7,0,9.5-1.3,14c-2.2,5.2-6.7,9.2-12.1,10.7c-6.5,2-13.6,1.4-19.7-1.6c-4.7-2.3-8-6.8-8.7-12c4.7,0,9.5,0,14.3,0
		c0.8,1.6,2.3,2.8,4.1,3.2c2.6,0.5,5.3,0.2,7.7-1c1.8-0.9,2.9-2.6,3.1-4.6c0-1.2,0-2.5,0-3.7c-3.1,2.7-7,4.4-11.1,4.7
		c-4.5,0.3-9-1.2-12.5-4.2c-4.3-4.2-6.7-10.1-6.4-16.2c-0.2-6.6,2.6-12.9,7.6-17.2 M292.2,332.7c-2.3,0.5-4.3,2-5.4,4.1
		c-2.9,5-1.4,11.3,3.3,14.5c3.8,1.8,8.3,0.8,11.1-2.3c3-3.6,3.3-8.8,0.7-12.8c-2.2-3.1-6.1-4.5-9.8-3.6L292.2,332.7z"/>
	<path class="st9" d="M330.7,324.7c4.2-2.8,9.3-3.8,14.3-2.8c3.1,0.8,6,2.4,8.2,4.7v-4.3h12.8v41.9h-12.8c0-1.3,0-2.7,0-4
		c-7.6,6.9-19.2,6.6-26.5-0.7c-4-4.8-5.9-11-5.4-17.2c0.3-7,3.9-13.6,9.6-17.6 M340.8,333.8c-2.9,0.9-5.2,3.1-6.1,6
		c-1.6,4.9,0.4,10.2,4.8,12.8c4.4,2,9.5,0.7,12.4-3.1c3.1-4.4,2.5-10.4-1.5-14c-2.7-2.3-6.3-3-9.6-1.9V333.8z"/>
	<path class="st9" d="M254.9,322.3h12.8c0,14,0,27.9,0,41.9c-4.2,0-8.5,0-12.8,0V322.3z"/>
	<path class="st10" d="M62.1,385.2c-3.4-6-3-13.5,0.9-19.2c1,3.5,2.5,6.8,4.5,9.8c3.7,6.4,7.4,12.8,11.1,19.2
		c1.3,2.6,2.1,5.5,2.3,8.4c6.8,1.5,13.1,4.6,18.3,9.2c3.6,3.1,5.7,7.6,5.6,12.3c-0.5,4.3-2.6,8.2-5.9,10.9
		c-4.5,3.8-9.7,6.7-15.4,8.2c-5.7,1.7-11.5,2.7-17.4,3.1c-2.1-0.2-4.3-0.2-6.4,0c-8.8-0.3-17.5-2.3-25.6-6
		c-4.6-2.1-8.6-5.2-11.6-9.3c-2.3-3.2-3-7.2-2.2-11.1c1.7-5.2,5.4-9.5,10.2-12.1c4.2-2.4,8.8-4.2,13.5-5.2c-0.1,3.5,0.8,7,2.6,10
		c4.4,7.7,8.9,15.5,13.4,23.1c0.8,1.6,1.5,3.3,2,5.1c3.7-5.8,3.8-13.2,0.4-19.2l-9.1-15.9c-1.1-1.8-2.1-3.7-2.9-5.8
		c-1.9-5.5-1.1-11.5,2-16.3c0.4,1.9,1.1,3.7,2,5.4l15.9,27.6c1,1.7,1.8,3.5,2.1,5.4c3.7-5.6,4-12.7,0.8-18.5
		C69.5,398,65.8,391.6,62.1,385.2L62.1,385.2z"/>
	<path class="st10" d="M126.9,391.1c4.2-2.5,9-3.7,13.8-3.3c4.8-0.1,9.6,0.7,14.3,2.2c0,2.8-0.6,5.6-1.6,8.2
		c-3.5-1.3-7.2-2-10.9-2.2c-3.3-0.5-6.8,0.1-9.7,1.8c-2.6,2.1-3.2,5.8-1.3,8.6c1.7,2.1,3.9,3.8,6.4,4.7c5.5,1.9,10.7,4.7,15.3,8.2
		c5.9,5.7,6,15.1,0.2,21c-0.3,0.3-0.6,0.6-0.9,0.8c-4,2.9-8.9,4.4-13.9,4.3c-5.6,0.2-11.1-0.6-16.4-2.4c-0.4,0-1.1,0-1.2-0.8
		c0-2.7,0.4-5.3,1.2-7.9c5.2,2.2,10.7,3.3,16.4,3c2.8,0.1,5.5-0.8,7.7-2.4c2.6-2.4,2.7-6.5,0.3-9c-0.1-0.1-0.2-0.2-0.3-0.3
		c-2.1-1.9-4.5-3.4-7.2-4.5c-5.3-1.8-10.3-4.6-14.5-8.2c-3.3-3.8-4.5-9-3.3-13.9c0.7-3.2,2.6-6,5.4-7.9L126.9,391.1z"/>
	<path class="st10" d="M253.7,389.5c2.9-0.7,5.8-1.2,8.8-1.3c0,5,0,10.2,0,15.1c4.6,0,9.1,0,13.7,0c0,2.6-0.4,5-0.8,7.6
		c-4.3,0-8.7,0-12.8,0c0,6.4,0,13.5,0,20.2c-0.2,2.4,1.2,4.7,3.4,5.8c3.4,0.9,6.9,0.7,10.2-0.6c0,2.5-0.6,5-1,7.4
		c-3.6,1.3-7.4,1.7-11.2,1.1c-3.4-0.3-6.4-2.2-8.3-5c-1.7-3.2-2.4-6.9-2-10.5C253.7,416,253.7,402.8,253.7,389.5L253.7,389.5z"/>
	<path class="st10" d="M397,389.5c2.8-0.8,5.7-1.3,8.7-1.2c0,18.6,0,37.2,0,55.9c-2.7,0-5.4,0-8.2,0c0-1.7,0-3.3-0.4-4.9
		c-1.6,2.7-4.2,4.6-7.2,5.4c-5.3,1.5-11,0.4-15.3-3c-3.9-3.6-6.2-8.5-6.4-13.7c-0.6-4.8,0-9.7,1.7-14.2c1.7-4.2,5-7.6,9.2-9.4
		c5.7-2.3,11.9-2.9,18-1.8v-12.8 M383.6,411.2c-3.5,1.8-5.9,5.2-6.4,9.1c-0.7,4-0.3,8.2,1.2,12c1.1,2.6,3.3,4.5,5.9,5.2
		c4.2,1.1,8.7,0.2,12.1-2.4c0.1-1.9,0.1-3.8,0-5.7c0-6.4,0-12.8,0-19.2c-4.4-1.2-9-1-13.3,0.6L383.6,411.2z"/>
	<path class="st10" d="M168.1,408.2c3.8-3.9,9-6.2,14.4-6.4c6-0.4,11.9,0.3,17.6,2c0,13.4,0,26.6,0,39.9c-2.7,0-5.4,0-8.1,0
		c0-1.5,0-2.9-0.4-4.5c-1.6,2.2-3.8,3.9-6.4,4.8c-6.2,1.9-13,0.1-17.4-4.7c-3.5-4.5-5.3-10.2-5-15.9c-0.3-5.7,1.5-11.3,5.2-15.7
		 M178.2,410.8c-2.8,1.4-4.8,4-5.6,7c-1,3.8-1,7.8,0,11.6c0.7,3.1,2.7,5.8,5.6,7.2c4.2,1.7,9,1.2,12.8-1.5c0.5-0.2,0.7-0.7,0.6-1.2
		v-23.8c-4.3-0.9-8.7-0.6-12.8,1L178.2,410.8z"/>
	<path class="st10" d="M216,403c5.9-1.1,12-1.1,17.9,0c3.2,0.5,6,2.1,8.2,4.5c2,2.7,3.1,6.1,2.9,9.5v27.4c-2.9,0-5.9,0-8.9,0
		c0-8.6,0-17.1,0-25.6c0.3-2.3-0.3-4.5-1.6-6.4c-1.1-1.2-2.5-2-4.2-2.3c-3.9-0.7-8-0.7-11.9,0V444h-8.7c0-13.3,0-26.5,0-39.8
		c2.1-0.6,4.2-1.1,6.4-1.4L216,403z"/>
	<path class="st10" d="M283.7,408.6c4.2-4.3,10-6.6,16-6.4c5.6-0.3,11.3,0.5,16.6,2.2c0,13.3,0,26.6,0,39.9h-8.2c0-1.5,0-3-0.4-4.5
		c-1.6,2.2-3.8,3.9-6.4,4.8c-5.8,1.7-12,0.3-16.5-3.6c-3.4-3.6-5.5-8.2-5.8-13.2C277.9,421.1,279.6,414.2,283.7,408.6 M294,411.3
		c-3,1.7-5.1,4.7-5.7,8.1c-0.9,4.1-0.6,8.4,0.9,12.4c1.2,2.9,3.7,5.1,6.7,5.8c4,1,8.2,0.2,11.6-2.2c0-8.3,0-16.6,0-24.9
		c-4.4-1.1-9.1-0.7-13.3,1.1L294,411.3z"/>
	<path class="st10" d="M325.7,404.3c7.3-2.1,15-2.7,22.6-1.8c3.7,0.3,7.1,2,9.6,4.6c2.2,2.7,3.3,6.2,3.1,9.7v27.4h-8.8
		c0-8.1,0-16,0-24c0.2-2.5-0.2-5-1.3-7.3c-1.4-1.8-3.6-2.9-5.9-3.1c-3.5-0.3-7-0.2-10.4,0.4v33.9h-8.8
		C325.7,430.9,325.7,417.6,325.7,404.3L325.7,404.3z"/>
	<path class="st10" d="M426,402.7c4.2-1,8.6-0.9,12.8,0.4c4.2,1.2,7.6,4.2,9.3,8.2c1.8,5,2.3,10.5,1.3,15.7h-28c0.4,3,1.8,5.7,4,7.7
		c3,2.1,6.6,3,10.2,2.6c4.4-0.2,8.7-1.2,12.8-2.9c0,2.4-0.7,4.7-1.1,7.1c0,0.4,0,1-0.7,1.2c-4.1,1.7-8.4,2.5-12.8,2.4
		c-3.9,0.1-7.8-0.7-11.3-2.4c-3.1-1.5-5.7-4-7.3-7.1c-1.9-4-2.9-8.4-2.7-12.8c-0.1-4.8,1.3-9.5,3.8-13.5c2.3-3.3,5.8-5.6,9.7-6.4
		 M424.5,412.2c-1.9,2.2-3,4.9-3.1,7.7h19.7c0-2-0.5-4-1.3-5.8c-1.2-2.3-3.4-3.9-6-4.3c-3.2-0.8-6.7-0.1-9.3,2L424.5,412.2z"/>
	<path class="st10" d="M457.3,404.2c7.3-2.1,15-2.8,22.6-1.9c0.2,2.5,0,5-0.7,7.4c-4.2-0.5-8.5-0.5-12.8,0c0,11.4,0,22.8,0,34.1
		c-3,0-6,0-8.9,0c0-13.3,0-26.6,0-39.9L457.3,404.2z"/>
</g>
</svg>
