<?xml version="1.0" encoding="utf-8"?>
<!-- Generator: Adobe Illustrator 26.0.2, SVG Export Plug-In . SVG Version: 6.00 Build 0)  -->
<svg version="1.1" id="Ebene_1" xmlns="http://www.w3.org/2000/svg" xmlns:xlink="http://www.w3.org/1999/xlink" x="0px" y="0px"
	 viewBox="0 0 500 500" style="enable-background:new 0 0 500 500;" xml:space="preserve">
<style type="text/css">
	.st0{fill:#D5161A;}
	.st1{fill:#065CA8;}
	.st2{fill:#FEFDFD;}
</style>
<g>
	<rect x="122.9" y="96.5" class="st0" width="254.5" height="382.5"/>
	<rect x="122.6" y="21" class="st1" width="254.5" height="76.3"/>
	<path class="st2" d="M165,43.8c-1.5,2.6-2.2,5.3-2.2,8.2c0,2.9,0.8,5.6,2.5,7.9c2.6,3.7,5.8,6.6,10.2,8c2.4,0.8,4.9,1.1,7.4,1.3
		c5.1,0.4,10.1,0.4,15.2,0.4c0.4,0,0.7,0.1,0.9,0.5c0.7,1.5,1.5,2.9,2.3,4.4c0.1,0.2,0.2,0.3,0.2,0.6c-1.3,0-2.7,0-4,0
		c-4.7,0-9.4-0.1-14.1-0.4c-4-0.3-8-0.7-11.8-2.4c-6.3-2.8-10.9-7.3-13.3-13.8c-1-2.7-1.2-5.6-0.5-8.4c0.1-0.2,0.1-0.4,0.3-0.6
		c1.8-2.4,3.9-4.3,6.6-5.6C164.8,43.9,164.9,43.9,165,43.8z"/>
	<path class="st2" d="M182.9,45.9c-6.2-6.3-15.3-7.5-22.8-1.3c-4.8,4-6.9,9.3-6.6,15.5c0.1,2.8,1.1,5.4,2.7,7.8
		c0.2,0.3,0.4,0.5,0.7,0.7c2.3,1.3,4.8,2,7.4,1.9c0.5,0,0.9,0.1,1.3,0.4c1.6,1.3,3.4,2.2,5.2,3c0.2,0.1,0.5,0.2,0.8,0.4
		c-2.5,0.5-4.8,0.6-7.1-0.1c-6.8-2.1-12.1-6.2-14.4-13.2c-3.3-10.3,2.6-20.2,12.4-22.9c4.9-1.4,9.7-0.3,14.1,2.2
		c2.2,1.3,4.2,2.9,5.9,4.9C182.8,45.5,183,45.6,182.9,45.9z"/>
	<path class="st2" d="M179.8,45.4c2.1,1.4,3.6,3.2,4.8,5.3c2.7,4.4,2.4,9,0.3,13.5c-0.4,1-0.9,1.9-1.5,2.7c-0.1,0.2-0.3,0.4-0.6,0.4
		c-2.2-0.2-4.3-0.4-6.4-1.1C182,60.1,183.9,53.3,179.8,45.4z"/>
	<path class="st2" d="M160.4,74.8c-6.9,0-13.8,0-20.7,0c-0.1-0.2,0-0.3,0.1-0.4c0.7-1.2,1.3-2.3,2-3.5c0.2-0.3,0.3-0.4,0.7-0.4
		c3.8,0,7.6,0,11.4,0c0.2,0,0.5,0,0.7,0.2c1.7,1.6,3.7,2.9,5.8,4C160.3,74.6,160.3,74.7,160.4,74.8z"/>
	<path class="st2" d="M295.3,59.4c0.1-6.8,4.1-12.8,10.4-15.4c6.3-2.6,13.7-1.2,18.5,3.5c5.8,5.8,6.8,14.4,2.3,21.2
		c-0.5,0.7-0.4,1.1,0.2,1.6c0.6,0.6,1.7,1.2,1.7,1.9c0,0.8-1.1,1.3-1.7,1.9c-0.6,0.7-1.4,1.8-2,1.8c-0.7,0-1.4-1.1-2-1.8
		c-0.5-0.6-0.9-0.6-1.6-0.2C310.5,80,297.5,74,295.5,62C295.3,61.2,295.3,60.3,295.3,59.4z M321.7,65.4c1.2-2,1.6-4,1.6-6.2
		c-0.2-7.1-6.5-12.4-13.1-10.9c-4.3,1-7,3.7-8.3,7.8c-1.3,4.2-0.4,8.1,2.5,11.3c3.3,3.6,7.9,4.5,12.2,2.6c1.3-0.6,1.3-0.6,0.3-1.6
		c-0.7-0.7-1.4-1.5-2.2-2.1c-0.5-0.5-0.6-0.8-0.1-1.3c1-0.9,1.9-1.8,2.8-2.8c0.4-0.4,0.6-0.5,1.1,0
		C319.5,63.2,320.6,64.2,321.7,65.4z"/>
	<path class="st2" d="M271.1,63.2c0-4.5,0-8.7,0-12.9c0-1.9,0-3.8,0-5.8c0-0.7,0.2-0.9,0.9-0.9c1.4,0.1,2.8,0.1,4.2,0
		c0.8,0,0.9,0.2,0.9,1c0,3,0,6,0,9c0,6.9,0,13.8,0,20.6c0,0.9-0.3,1-1.1,1.1c-1.6,0.2-2.7-0.4-3.7-1.7c-4.8-5.7-9.8-11.2-14.7-16.8
		c-0.2-0.3-0.5-0.6-0.8-0.9c-0.3,0.4-0.2,0.8-0.2,1.2c0,5.6,0,11.2,0,16.8c0,1.1-0.3,1.3-1.3,1.3c-1.3-0.1-2.6,0-3.8,0
		c-0.6,0-0.9-0.1-0.9-0.8c0-10,0-20,0-30c0-0.6,0.2-0.8,0.8-0.8c1.7-0.2,2.9,0.4,4,1.8c4.8,5.7,9.8,11.3,14.7,16.9
		C270.4,62.6,270.7,62.8,271.1,63.2z"/>
	<path class="st2" d="M216.2,54.1c0-3.1,0-6.2,0-9.4c0-0.8,0.1-1.1,1-1.1c1.3,0.1,2.6,0.1,3.9,0c0.9,0,1.1,0.2,1.1,1.1
		c0,5.1,0,10.2,0,15.3c0,1.5,0,3.1,0.5,4.6c1.2,3.8,4.1,6,7.9,5.8c3.7-0.2,6.6-2.8,7.3-6.6c0.2-0.8,0.2-1.7,0.2-2.6
		c0-5.5,0-11,0-16.5c0-0.9,0.2-1.2,1.1-1.1c1.3,0.1,2.7,0,4.1,0c0.7,0,0.9,0.1,0.9,0.9c0,6.1,0.1,12.1,0,18.2
		c-0.2,8.3-7,14.2-15.3,13.3c-7.9-0.8-12.7-6.1-12.7-14.1C216.2,59.3,216.2,56.7,216.2,54.1z"/>
	<path class="st2" d="M360.6,75.3c-2,0-4,0-6,0c-0.5,0-0.6-0.3-0.8-0.7c-0.6-1.5-1.3-3-1.8-4.6c-0.2-0.5-0.4-0.7-1-0.7
		c-4,0-8,0-12.1,0c-0.6,0-0.8,0.2-1.1,0.7c-0.6,1.5-1.2,3-1.9,4.5c-0.2,0.4-0.3,0.7-0.8,0.7c-1.9,0-3.8,0-5.9,0
		c1-2.2,1.9-4.2,2.7-6.3c3.5-8.1,7.1-16.2,10.6-24.3c0.3-0.7,0.7-1,1.5-1c3.1,0,3.1,0,4.3,2.8c3.9,9.2,7.8,18.4,11.7,27.5
		C360.4,74.4,360.7,74.7,360.6,75.3z M340.5,64.1c2.9,0,5.7,0,8.5,0c0.5,0,0.7,0,0.5-0.6c-1.4-3.5-2.8-6.9-4.3-10.6
		C343.5,56.7,342,60.4,340.5,64.1z"/>
	<path class="st2" d="M284,59.4c0-4.9,0-9.8,0-14.7c0-0.9,0.2-1.2,1.1-1.1c1.4,0.1,2.9,0,4.3,0c0.6,0,0.8,0.2,0.8,0.8
		c0,10,0,20,0,30c0,0.6-0.2,0.8-0.8,0.8c-1.5,0-2.9-0.1-4.4,0c-0.8,0-1-0.2-1-1C284,69.3,284,64.4,284,59.4z"/>
	<path class="st2" d="M245.4,258.3c0,26,0,52,0,78.1c0,1.8-0.4,2.4-2.2,2.3c-2-0.2-4-0.1-6,0c-1,0-1.4-0.2-1.4-1.3
		c0.1-10.8-0.4-21.6-1.1-32.4c-0.9-13.4-2.3-26.8-4.3-40.1c-2.8-19-6.8-37.8-12-56.3c-6-21.4-13.4-42.3-23.2-62.3
		c-0.9-1.9-1.8-3.7-2.9-5.5c-0.6-1-0.6-1.5,0.7-1.9c7.5-2.2,15-3.9,22.7-5.2c8.2-1.4,16.6-2.1,24.9-2.6c1.1-0.1,1.5,0.3,1.7,1.4
		c0.8,5.9,0.9,11.9,1.2,17.8c0.6,14.4,0.9,28.9,1,43.3c0.1,13.5,0.4,27,0.5,40.5c0.1,8,0,16.1,0,24.1
		C245.2,258.3,245.3,258.3,245.4,258.3z"/>
	<path class="st2" d="M255.4,305.1c1-20.2,2.1-40.4,3.8-60.5c1.3-16.4,3-32.8,5-49.1c2.6-20.6,6-41,10.6-61.2
		c0.3-1.4,0.9-1.9,2.4-1.7c10.1,1.4,20,3.4,29.8,6.3c1.5,0.5,1.8,0.8,1.1,2.3c-14,31-24.2,63.3-31.5,96.5
		c-3.6,16.6-6.5,33.4-8.5,50.3c-1.7,14.3-3,28.6-3.3,43c-0.1,2.1-0.1,4.3-0.1,6.4c0,0.9-0.2,1.2-1.2,1.2c-2.4-0.1-4.8-0.1-7.2,0
		c-1,0-1.3-0.3-1.3-1.3c0.1-7.2,0.1-14.4,0.4-21.7C255.5,312.2,255.4,308.6,255.4,305.1z"/>
	<path class="st2" d="M274.3,330.8c0.5-14,1.8-27.9,3.7-41.8c2.7-19.4,6.5-38.4,12.1-57.2c6.6-22.2,15.4-43.4,28.3-62.7
		c4.2-6.3,8.8-12.2,13.9-17.8c1-1.2,1.7-1.1,2.9-0.4c4.9,3,9.5,6.3,13.8,10.2c1.2,1.1,1.3,1.8,0.2,3.1
		c-16.2,18.9-29.8,39.5-40.7,61.8c-11.6,23.8-19.8,48.8-24.1,74.9c-2,12-3.2,24-2.9,36.2c0,1.2-0.3,1.5-1.4,1.4
		c-1.3-0.1-2.5,0-3.8,0c-2.4,0-2.4,0-2.3-2.5C274.1,334.4,274.2,332.6,274.3,330.8z"/>
	<path class="st2" d="M218.8,329.8c-0.9-23.1-5.3-45.6-12.4-67.5c-11.8-36.3-30.4-68.8-55.1-97.9c-1.2-1.5-1.3-2.2,0.2-3.5
		c4.2-3.7,8.7-7,13.5-9.9c1.4-0.8,2-0.8,2.9,0.6c12.4,17,22.4,35.3,30.6,54.7c9.9,23.6,16.9,48,21.6,73.1
		c3.3,17.8,5.4,35.7,6.3,53.8c0.1,1.7,0.8,4-0.2,5.1c-1,1.1-3.2,0.2-4.9,0.3c-0.5,0-1,0-1.5,0c-0.9,0.1-1-0.3-1-1.1
		c0.1-2.4,0-4.8,0-7.2C218.8,330.2,218.8,330,218.8,329.8z"/>
	<path class="st2" d="M293.7,381.9c1.7,0.8,3.1,1.9,3.9,3.6c3.4,6.4,0.1,13.2-7.1,14.9c-1.4,0.3-2.9,0.5-4.3,0.5
		c-5.4,0-10.8,0-16.3,0c-0.8,0-1-0.2-1-1c0-11,0-22,0-33c0-0.9,0.2-1,1.1-1c5.5,0,10.9,0,16.4,0c2.3,0,4.6,0.4,6.7,1.5
		c5.1,2.7,5.9,10.2,1.5,13.9C294.3,381.4,294.1,381.6,293.7,381.9z M282.1,394.5c1.5,0,3,0,4.5,0c0.1,0,0.1,0,0.2,0
		c2.3-0.1,3.9-1.2,4.3-3.1c0.8-3.4-0.9-5.7-4.5-5.8c-3.1-0.1-6.2,0-9.3,0c-0.6,0-0.8,0.2-0.8,0.8c0,2.4,0,4.8,0,7.3
		c0,0.6,0.2,0.8,0.8,0.8C278.9,394.4,280.5,394.5,282.1,394.5z M281.8,379.8c1.5-0.1,3.3,0.2,5.1-0.2c2.1-0.5,3.1-2,3-4.2
		c-0.2-2.1-1.1-3.1-3.4-3.2c-3.1-0.2-6.1,0-9.2-0.1c-0.7,0-0.7,0.3-0.7,0.8c0,2,0,4,0,6c0,0.7,0.3,0.9,0.9,0.8
		C278.8,379.8,280.1,379.8,281.8,379.8z"/>
	<path class="st2" d="M200.9,381.5c0.2-4.7,2.3-10.3,8-13.9c8.2-5.2,22.6-3,25.8,11.1c1.1,5,0.6,10-1.9,14.5
		c-3.3,5.9-9.6,9-16.3,8.4C206.8,400.7,200.8,392.8,200.9,381.5z M208.5,382.3c-0.2,3,0.6,6.6,1.9,8.8c3.4,5.5,11.8,5.7,15.1,0.2
		c3-5,3-10.4,0.3-15.5c-3.2-6.1-12-6.1-15.5-0.2C209.1,377.8,208.6,380.2,208.5,382.3z"/>
	<path class="st2" d="M237.2,422.1c0-3.8,0-7.6,0-11.4c0-0.8,0.1-1.1,1-1.1c1.8,0.1,3.7,0.1,5.5,0c0.8,0,1.1,0.2,1.1,1
		c0,6.5,0,13.1,0,19.6c0,1.3,0.1,2.7,0.4,4c0.5,2.3,2,3.7,4.3,4.2c1.8,0.4,3.6,0.4,5.3,0c2.5-0.6,4-2.3,4.4-4.8
		c0.2-1.4,0.2-2.8,0.2-4.1c0-6.3,0-12.6,0-18.8c0-0.9,0.3-1.2,1.2-1.2c1.9,0.1,3.7,0,5.6,0c0.6,0,0.8,0.1,0.8,0.8
		c0,7.3,0.1,14.7-0.1,22c-0.1,7.7-5.1,12.5-13,13c-2.3,0.1-4.6,0.1-6.9-0.5c-6.2-1.6-9.7-6.1-9.8-12.8
		C237.2,428.8,237.2,425.4,237.2,422.1z"/>
	<path class="st2" d="M229.8,421.8c-1.1,0-2.3,0.3-3.3-0.1c-1.1-0.4-0.9-1.8-1.4-2.7c-1.4-2.6-4.3-4.1-7.5-3.9
		c-4.1,0.3-6.8,2.5-8.1,6.3c-1.5,4.4-1.4,8.8,0.7,12.9c2.5,4.8,8.9,6.2,12.9,2.9c1.9-1.6,2.6-3.8,2.9-6.1c0.1-0.7,0.3-1,1-0.9
		c1.9,0.1,3.7,0.1,5.6,0c0.8,0,0.9,0.2,0.9,1c-0.3,7.7-6.5,13.9-14.2,14.1c-4.7,0.2-8.9-0.9-12.4-4.1c-3.5-3.1-5.3-7-5.7-11.6
		c-0.7-6,0.6-11.5,4.9-16c3.9-4,8.8-5.3,14.2-4.8c3.7,0.4,7,1.6,9.6,4.2c2.2,2.1,3.3,4.8,3.6,7.8c0.1,0.6,0,1-0.8,0.9
		C231.7,421.8,230.8,421.8,229.8,421.8z"/>
	<path class="st2" d="M270.5,427.1c0-5.5,0-11,0-16.5c0-0.6,0-1,0.9-1c5.5,0.1,11.1,0,16.6,0.1c3.5,0.1,6.6,1.2,8.7,4
		c2.8,3.8,2.9,8,1.1,12.1c-1.7,4-5.2,5.5-9.3,5.8c-3.1,0.3-6.3,0.1-9.4,0.1c-0.8,0-1.1,0.2-1.1,1.1c0,3.6,0,7.2,0,10.8
		c0,0.8-0.2,1-1,1c-1.9-0.1-3.8-0.1-5.7,0c-0.8,0-0.9-0.3-0.9-1C270.5,438.1,270.5,432.6,270.5,427.1z M283.3,416c-1.6,0-3,0-4.3,0
		c-0.6,0-0.9,0.1-0.9,0.8c0,2.6,0,5.2,0,7.8c0,0.6,0.2,0.8,0.8,0.8c2.5,0,5.1,0,7.6,0c0.9,0,1.8-0.3,2.7-0.7
		c1.6-0.9,2.4-2.8,2.1-4.9c-0.3-2.2-1.3-3.2-3.3-3.6C286.3,415.8,284.7,416,283.3,416z"/>
	<path class="st2" d="M239.4,383.3c0-5.5,0-10.9,0-16.4c0-0.8,0.1-1.2,1.1-1.2c7.7,0,15.5,0,23.2,0c0.8,0,1,0.2,1,1
		c-0.1,1.6-0.1,3.1,0,4.7c0,0.9-0.3,1-1.1,1c-5.2,0-10.3,0-15.5,0c-0.9,0-1.2,0.2-1.2,1.2c0.1,1.6,0.1,3.3,0,4.9
		c-0.1,1,0.3,1.1,1.2,1.1c4.4,0,8.8,0,13.2,0c0.9,0,1.1,0.3,1.1,1.1c-0.1,1.4-0.1,2.8,0,4.3c0.1,0.9-0.3,1-1.1,1
		c-4.4,0-8.9,0-13.3,0c-0.9,0-1.1,0.2-1.1,1.1c0,4.3,0,8.5,0,12.8c0,0.7-0.1,1-0.9,1c-1.9-0.1-3.8-0.1-5.7,0c-0.8,0-1-0.3-1-1
		C239.5,394.3,239.4,388.8,239.4,383.3z"/>
	<path class="st2" d="M262.4,356.3c-8.7,0-17.3,0-26,0c-0.9,0-1.2-0.2-1.2-1.2c0.1-1.6,0-3.2,0-4.8c0-0.5,0.1-0.8,0.7-0.7
		c0.1,0,0.3,0,0.4,0c17.3,0,34.6,0,51.9,0c1,0,1.3,0.2,1.2,1.2c-0.1,1.5-0.1,2.9,0,4.4c0,0.9-0.2,1.1-1.1,1.1
		C279.8,356.3,271.1,356.3,262.4,356.3z"/>
	<path class="st2" d="M219,349.6c2.3,0,4.6,0,6.9,0c0.7,0,0.9,0.2,0.9,0.9c0,1.7,0,3.4,0,5c0,0.6-0.2,0.8-0.8,0.8
		c-4.8,0-9.6,0-14.3,0c-0.5,0-0.7-0.2-0.7-0.7c0-1.8,0-3.5,0-5.3c0-0.6,0.3-0.7,0.8-0.7C214.2,349.6,216.6,349.6,219,349.6z"/>
</g>
</svg>
